<?xml version="1.0" encoding="UTF-8" standalone="no"?>
<!DOCTYPE svg PUBLIC "-//W3C//DTD SVG 1.1//EN"
 "http://www.w3.org/Graphics/SVG/1.1/DTD/svg11.dtd">
<!-- Generated by graphviz version 2.47.0 (20210316.0004)
 -->
<!-- Title: dependencies Pages: 1 -->
<svg width="504pt" height="284pt"
 viewBox="0.00 0.00 504.00 284.00" xmlns="http://www.w3.org/2000/svg" xmlns:xlink="http://www.w3.org/1999/xlink">
<g id="graph0" class="graph" transform="scale(1 1) rotate(0) translate(4 280)">
<title>dependencies</title>
<polygon fill="white" stroke="transparent" points="-4,4 -4,-280 500,-280 500,4 -4,4"/>
<text text-anchor="start" x="227.01" y="-42.4" font-family="Times-12" font-weight="bold" font-size="14.00">Legend</text>
<polygon fill="#ffffb3" stroke="transparent" points="14,-10 14,-30 34,-30 34,-10 14,-10"/>
<text text-anchor="start" x="37.63" y="-15.4" font-family="Times-12" font-size="14.00"> &#160;Declarations</text>
<polygon fill="#8dd3c7" stroke="transparent" points="127,-10 127,-30 147,-30 147,-10 127,-10"/>
<text text-anchor="start" x="150.73" y="-15.4" font-family="Times-12" font-size="14.00"> &#160;Module</text>
<polygon fill="#80b1d3" stroke="transparent" points="213,-10 213,-30 233,-30 233,-10 213,-10"/>
<text text-anchor="start" x="236.78" y="-15.4" font-family="Times-12" font-size="14.00"> &#160;Bootstrap</text>
<polygon fill="#fdb462" stroke="transparent" points="310,-10 310,-30 330,-30 330,-10 310,-10"/>
<text text-anchor="start" x="333.67" y="-15.4" font-family="Times-12" font-size="14.00"> &#160;Providers</text>
<polygon fill="#fb8072" stroke="transparent" points="406,-10 406,-30 426,-30 426,-10 406,-10"/>
<text text-anchor="start" x="429.73" y="-15.4" font-family="Times-12" font-size="14.00"> &#160;Exports</text>
<g id="clust1" class="cluster">
<title>cluster_StudentModule</title>
<polygon fill="none" stroke="black" stroke-dasharray="1,5" points="58,-70 58,-268 438,-268 438,-70 58,-70"/>
</g>
<g id="clust4" class="cluster">
<title>cluster_StudentModule_exports</title>
<polygon fill="none" stroke="black" points="174,-208 174,-260 294,-260 294,-208 174,-208"/>
</g>
<g id="clust6" class="cluster">
<title>cluster_StudentModule_providers</title>
<polygon fill="none" stroke="black" points="66,-78 66,-130 430,-130 430,-78 66,-78"/>
</g>
<!-- StudentService  -->
<g id="node1" class="node">
<title>StudentService </title>
<polygon fill="#fb8072" stroke="black" points="286.26,-252 181.74,-252 181.74,-216 286.26,-216 286.26,-252"/>
<text text-anchor="middle" x="234" y="-229.8" font-family="Times,serif" font-size="14.00">StudentService </text>
</g>
<!-- StudentModule -->
<g id="node2" class="node">
<title>StudentModule</title>
<polygon fill="#8dd3c7" stroke="black" points="285.33,-187 282.33,-191 261.33,-191 258.33,-187 182.67,-187 182.67,-151 285.33,-151 285.33,-187"/>
<text text-anchor="middle" x="234" y="-164.8" font-family="Times,serif" font-size="14.00">StudentModule</text>
</g>
<!-- StudentModule&#45;&gt;StudentService  -->
<g id="edge1" class="edge">
<title>StudentModule&#45;&gt;StudentService </title>
<path fill="none" stroke="black" stroke-dasharray="5,2" d="M234,-187.11C234,-187.11 234,-205.99 234,-205.99"/>
<polygon fill="black" stroke="black" points="230.5,-205.99 234,-215.99 237.5,-205.99 230.5,-205.99"/>
</g>
<!-- InsertStudentProvider -->
<g id="node3" class="node">
<title>InsertStudentProvider</title>
<ellipse fill="#fdb462" stroke="black" cx="326" cy="-104" rx="95.56" ry="18"/>
<text text-anchor="middle" x="326" y="-99.8" font-family="Times,serif" font-size="14.00">InsertStudentProvider</text>
</g>
<!-- InsertStudentProvider&#45;&gt;StudentModule -->
<g id="edge2" class="edge">
<title>InsertStudentProvider&#45;&gt;StudentModule</title>
<path fill="none" stroke="black" d="M257.69,-116.84C257.69,-116.84 257.69,-140.52 257.69,-140.52"/>
<polygon fill="black" stroke="black" points="254.19,-140.52 257.69,-150.52 261.19,-140.52 254.19,-140.52"/>
</g>
<!-- StudentService -->
<g id="node4" class="node">
<title>StudentService</title>
<ellipse fill="#fdb462" stroke="black" cx="143" cy="-104" rx="69.5" ry="18"/>
<text text-anchor="middle" x="143" y="-99.8" font-family="Times,serif" font-size="14.00">StudentService</text>
</g>
<!-- StudentService&#45;&gt;StudentModule -->
<g id="edge3" class="edge">
<title>StudentService&#45;&gt;StudentModule</title>
<path fill="none" stroke="black" d="M197.67,-115.32C197.67,-115.32 197.67,-140.94 197.67,-140.94"/>
<polygon fill="black" stroke="black" points="194.17,-140.94 197.67,-150.94 201.17,-140.94 194.17,-140.94"/>
</g>
</g>
</svg>
