<?xml version="1.0" encoding="UTF-8" standalone="no"?>
<!DOCTYPE svg PUBLIC "-//W3C//DTD SVG 1.1//EN"
 "http://www.w3.org/Graphics/SVG/1.1/DTD/svg11.dtd">
<!-- Generated by graphviz version 2.47.0 (20210316.0004)
 -->
<!-- Title: dependencies Pages: 1 -->
<svg width="982pt" height="211pt"
 viewBox="0.00 0.00 982.00 211.00" xmlns="http://www.w3.org/2000/svg" xmlns:xlink="http://www.w3.org/1999/xlink">
<g id="graph0" class="graph" transform="scale(1 1) rotate(0) translate(4 207)">
<title>dependencies</title>
<polygon fill="white" stroke="transparent" points="-4,4 -4,-207 978,-207 978,4 -4,4"/>
<text text-anchor="start" x="466.01" y="-42.4" font-family="Times-12" font-weight="bold" font-size="14.00">Legend</text>
<polygon fill="#ffffb3" stroke="transparent" points="253,-10 253,-30 273,-30 273,-10 253,-10"/>
<text text-anchor="start" x="276.63" y="-15.4" font-family="Times-12" font-size="14.00"> &#160;Declarations</text>
<polygon fill="#8dd3c7" stroke="transparent" points="366,-10 366,-30 386,-30 386,-10 366,-10"/>
<text text-anchor="start" x="389.73" y="-15.4" font-family="Times-12" font-size="14.00"> &#160;Module</text>
<polygon fill="#80b1d3" stroke="transparent" points="452,-10 452,-30 472,-30 472,-10 452,-10"/>
<text text-anchor="start" x="475.78" y="-15.4" font-family="Times-12" font-size="14.00"> &#160;Bootstrap</text>
<polygon fill="#fdb462" stroke="transparent" points="549,-10 549,-30 569,-30 569,-10 549,-10"/>
<text text-anchor="start" x="572.67" y="-15.4" font-family="Times-12" font-size="14.00"> &#160;Providers</text>
<polygon fill="#fb8072" stroke="transparent" points="645,-10 645,-30 665,-30 665,-10 645,-10"/>
<text text-anchor="start" x="668.73" y="-15.4" font-family="Times-12" font-size="14.00"> &#160;Exports</text>
<g id="clust1" class="cluster">
<title>cluster_ExamModule</title>
<polygon fill="none" stroke="black" stroke-dasharray="1,5" points="8,-70 8,-195 966,-195 966,-70 8,-70"/>
</g>
<g id="clust6" class="cluster">
<title>cluster_ExamModule_providers</title>
<polygon fill="none" stroke="black" points="142,-78 142,-130 958,-130 958,-78 142,-78"/>
</g>
<g id="clust3" class="cluster">
<title>cluster_ExamModule_imports</title>
<polygon fill="none" stroke="black" points="16,-78 16,-130 134,-130 134,-78 16,-78"/>
</g>
<!-- StudentModule -->
<g id="node1" class="node">
<title>StudentModule</title>
<polygon fill="#8dd3c7" stroke="black" points="126.33,-122 123.33,-126 102.33,-126 99.33,-122 23.67,-122 23.67,-86 126.33,-86 126.33,-122"/>
<text text-anchor="middle" x="75" y="-99.8" font-family="Times,serif" font-size="14.00">StudentModule</text>
</g>
<!-- ExamModule -->
<g id="node2" class="node">
<title>ExamModule</title>
<polygon fill="#8dd3c7" stroke="black" points="538.21,-187 535.21,-191 514.21,-191 511.21,-187 445.79,-187 445.79,-151 538.21,-151 538.21,-187"/>
<text text-anchor="middle" x="492" y="-164.8" font-family="Times,serif" font-size="14.00">ExamModule</text>
</g>
<!-- StudentModule&#45;&gt;ExamModule -->
<g id="edge1" class="edge">
<title>StudentModule&#45;&gt;ExamModule</title>
<path fill="none" stroke="black" d="M75,-122.28C75,-143.32 75,-175 75,-175 75,-175 435.78,-175 435.78,-175"/>
<polygon fill="black" stroke="black" points="435.78,-178.5 445.78,-175 435.78,-171.5 435.78,-178.5"/>
</g>
<!-- CreateExamProvider -->
<g id="node3" class="node">
<title>CreateExamProvider</title>
<ellipse fill="#fdb462" stroke="black" cx="858" cy="-104" rx="92.03" ry="18"/>
<text text-anchor="middle" x="858" y="-99.8" font-family="Times,serif" font-size="14.00">CreateExamProvider</text>
</g>
<!-- CreateExamProvider&#45;&gt;ExamModule -->
<g id="edge2" class="edge">
<title>CreateExamProvider&#45;&gt;ExamModule</title>
<path fill="none" stroke="black" d="M858,-122.28C858,-143.32 858,-175 858,-175 858,-175 548.35,-175 548.35,-175"/>
<polygon fill="black" stroke="black" points="548.35,-171.5 538.35,-175 548.35,-178.5 548.35,-171.5"/>
</g>
<!-- ExamService -->
<g id="node4" class="node">
<title>ExamService</title>
<ellipse fill="#fdb462" stroke="black" cx="685" cy="-104" rx="62.54" ry="18"/>
<text text-anchor="middle" x="685" y="-99.8" font-family="Times,serif" font-size="14.00">ExamService</text>
</g>
<!-- ExamService&#45;&gt;ExamModule -->
<g id="edge3" class="edge">
<title>ExamService&#45;&gt;ExamModule</title>
<path fill="none" stroke="black" d="M685,-122.02C685,-139.37 685,-163 685,-163 685,-163 548.23,-163 548.23,-163"/>
<polygon fill="black" stroke="black" points="548.23,-159.5 538.23,-163 548.23,-166.5 548.23,-159.5"/>
</g>
<!-- UpdateMcqExamProvider -->
<g id="node5" class="node">
<title>UpdateMcqExamProvider</title>
<ellipse fill="#fdb462" stroke="black" cx="492" cy="-104" rx="112.3" ry="18"/>
<text text-anchor="middle" x="492" y="-99.8" font-family="Times,serif" font-size="14.00">UpdateMcqExamProvider</text>
</g>
<!-- UpdateMcqExamProvider&#45;&gt;ExamModule -->
<g id="edge4" class="edge">
<title>UpdateMcqExamProvider&#45;&gt;ExamModule</title>
<path fill="none" stroke="black" d="M492,-122.11C492,-122.11 492,-140.99 492,-140.99"/>
<polygon fill="black" stroke="black" points="488.5,-140.99 492,-150.99 495.5,-140.99 488.5,-140.99"/>
</g>
<!-- UpdateOeExamProvider -->
<g id="node6" class="node">
<title>UpdateOeExamProvider</title>
<ellipse fill="#fdb462" stroke="black" cx="256" cy="-104" rx="105.92" ry="18"/>
<text text-anchor="middle" x="256" y="-99.8" font-family="Times,serif" font-size="14.00">UpdateOeExamProvider</text>
</g>
<!-- UpdateOeExamProvider&#45;&gt;ExamModule -->
<g id="edge5" class="edge">
<title>UpdateOeExamProvider&#45;&gt;ExamModule</title>
<path fill="none" stroke="black" d="M256,-122.02C256,-139.37 256,-163 256,-163 256,-163 435.66,-163 435.66,-163"/>
<polygon fill="black" stroke="black" points="435.66,-166.5 445.66,-163 435.66,-159.5 435.66,-166.5"/>
</g>
</g>
</svg>
