<?xml version="1.0" encoding="UTF-8" standalone="no"?>
<!DOCTYPE svg PUBLIC "-//W3C//DTD SVG 1.1//EN"
 "http://www.w3.org/Graphics/SVG/1.1/DTD/svg11.dtd">
<!-- Generated by graphviz version 2.47.0 (20210316.0004)
 -->
<!-- Title: dependencies Pages: 1 -->
<svg width="982pt" height="211pt"
 viewBox="0.00 0.00 982.00 211.00" xmlns="http://www.w3.org/2000/svg" xmlns:xlink="http://www.w3.org/1999/xlink">
<g id="graph0" class="graph" transform="scale(1 1) rotate(0) translate(4 207)">
<title>dependencies</title>
<polygon fill="white" stroke="transparent" points="-4,4 -4,-207 978,-207 978,4 -4,4"/>
<text text-anchor="start" x="466.01" y="-42.4" font-family="Times-12" font-weight="bold" font-size="14.00">Legend</text>
<polygon fill="#ffffb3" stroke="transparent" points="253,-10 253,-30 273,-30 273,-10 253,-10"/>
<text text-anchor="start" x="276.63" y="-15.4" font-family="Times-12" font-size="14.00"> &#160;Declarations</text>
<polygon fill="#8dd3c7" stroke="transparent" points="366,-10 366,-30 386,-30 386,-10 366,-10"/>
<text text-anchor="start" x="389.73" y="-15.4" font-family="Times-12" font-size="14.00"> &#160;Module</text>
<polygon fill="#80b1d3" stroke="transparent" points="452,-10 452,-30 472,-30 472,-10 452,-10"/>
<text text-anchor="start" x="475.78" y="-15.4" font-family="Times-12" font-size="14.00"> &#160;Bootstrap</text>
<polygon fill="#fdb462" stroke="transparent" points="549,-10 549,-30 569,-30 569,-10 549,-10"/>
<text text-anchor="start" x="572.67" y="-15.4" font-family="Times-12" font-size="14.00"> &#160;Providers</text>
<polygon fill="#fb8072" stroke="transparent" points="645,-10 645,-30 665,-30 665,-10 645,-10"/>
<text text-anchor="start" x="668.73" y="-15.4" font-family="Times-12" font-size="14.00"> &#160;Exports</text>
<g id="clust1" class="cluster">
<title>cluster_ExamModule</title>
<polygon fill="none" stroke="black" stroke-dasharray="1,5" points="8,-70 8,-195 966,-195 966,-70 8,-70"/>
</g>
<g id="clust3" class="cluster">
<title>cluster_ExamModule_imports</title>
<polygon fill="none" stroke="black" points="840,-78 840,-130 958,-130 958,-78 840,-78"/>
</g>
<g id="clust6" class="cluster">
<title>cluster_ExamModule_providers</title>
<polygon fill="none" stroke="black" points="16,-78 16,-130 832,-130 832,-78 16,-78"/>
</g>
<!-- StudentModule -->
<g id="node1" class="node">
<title>StudentModule</title>
<polygon fill="#8dd3c7" stroke="black" points="950.33,-122 947.33,-126 926.33,-126 923.33,-122 847.67,-122 847.67,-86 950.33,-86 950.33,-122"/>
<text text-anchor="middle" x="899" y="-99.8" font-family="Times,serif" font-size="14.00">StudentModule</text>
</g>
<!-- ExamModule -->
<g id="node2" class="node">
<title>ExamModule</title>
<polygon fill="#8dd3c7" stroke="black" points="605.21,-187 602.21,-191 581.21,-191 578.21,-187 512.79,-187 512.79,-151 605.21,-151 605.21,-187"/>
<text text-anchor="middle" x="559" y="-164.8" font-family="Times,serif" font-size="14.00">ExamModule</text>
</g>
<!-- StudentModule&#45;&gt;ExamModule -->
<g id="edge1" class="edge">
<title>StudentModule&#45;&gt;ExamModule</title>
<path fill="none" stroke="black" d="M899,-122.28C899,-143.32 899,-175 899,-175 899,-175 615.21,-175 615.21,-175"/>
<polygon fill="black" stroke="black" points="615.21,-171.5 605.21,-175 615.21,-178.5 615.21,-171.5"/>
</g>
<!-- CreateExamProvider -->
<g id="node3" class="node">
<title>CreateExamProvider</title>
<ellipse fill="#fdb462" stroke="black" cx="732" cy="-104" rx="92.03" ry="18"/>
<text text-anchor="middle" x="732" y="-99.8" font-family="Times,serif" font-size="14.00">CreateExamProvider</text>
</g>
<!-- CreateExamProvider&#45;&gt;ExamModule -->
<g id="edge2" class="edge">
<title>CreateExamProvider&#45;&gt;ExamModule</title>
<path fill="none" stroke="black" d="M732,-122.02C732,-139.37 732,-163 732,-163 732,-163 615.36,-163 615.36,-163"/>
<polygon fill="black" stroke="black" points="615.36,-159.5 605.36,-163 615.36,-166.5 615.36,-159.5"/>
</g>
<!-- ExamService -->
<g id="node4" class="node">
<title>ExamService</title>
<ellipse fill="#fdb462" stroke="black" cx="559" cy="-104" rx="62.54" ry="18"/>
<text text-anchor="middle" x="559" y="-99.8" font-family="Times,serif" font-size="14.00">ExamService</text>
</g>
<!-- ExamService&#45;&gt;ExamModule -->
<g id="edge3" class="edge">
<title>ExamService&#45;&gt;ExamModule</title>
<path fill="none" stroke="black" d="M559,-122.11C559,-122.11 559,-140.99 559,-140.99"/>
<polygon fill="black" stroke="black" points="555.5,-140.99 559,-150.99 562.5,-140.99 555.5,-140.99"/>
</g>
<!-- UpdateMcqExamProvider -->
<g id="node5" class="node">
<title>UpdateMcqExamProvider</title>
<ellipse fill="#fdb462" stroke="black" cx="366" cy="-104" rx="112.3" ry="18"/>
<text text-anchor="middle" x="366" y="-99.8" font-family="Times,serif" font-size="14.00">UpdateMcqExamProvider</text>
</g>
<!-- UpdateMcqExamProvider&#45;&gt;ExamModule -->
<g id="edge4" class="edge">
<title>UpdateMcqExamProvider&#45;&gt;ExamModule</title>
<path fill="none" stroke="black" d="M366,-122.02C366,-139.37 366,-163 366,-163 366,-163 502.77,-163 502.77,-163"/>
<polygon fill="black" stroke="black" points="502.77,-166.5 512.77,-163 502.77,-159.5 502.77,-166.5"/>
</g>
<!-- UpdateOeExamProvider -->
<g id="node6" class="node">
<title>UpdateOeExamProvider</title>
<ellipse fill="#fdb462" stroke="black" cx="130" cy="-104" rx="105.92" ry="18"/>
<text text-anchor="middle" x="130" y="-99.8" font-family="Times,serif" font-size="14.00">UpdateOeExamProvider</text>
</g>
<!-- UpdateOeExamProvider&#45;&gt;ExamModule -->
<g id="edge5" class="edge">
<title>UpdateOeExamProvider&#45;&gt;ExamModule</title>
<path fill="none" stroke="black" d="M130,-122.28C130,-143.32 130,-175 130,-175 130,-175 502.68,-175 502.68,-175"/>
<polygon fill="black" stroke="black" points="502.68,-178.5 512.68,-175 502.68,-171.5 502.68,-178.5"/>
</g>
</g>
</svg>
