<?xml version="1.0" encoding="UTF-8" standalone="no"?>
<!DOCTYPE svg PUBLIC "-//W3C//DTD SVG 1.1//EN"
 "http://www.w3.org/Graphics/SVG/1.1/DTD/svg11.dtd">
<!-- Generated by graphviz version 2.47.0 (20210316.0004)
 -->
<!-- Title: dependencies Pages: 1 -->
<svg width="1700pt" height="284pt"
 viewBox="0.00 0.00 1700.00 284.00" xmlns="http://www.w3.org/2000/svg" xmlns:xlink="http://www.w3.org/1999/xlink">
<g id="graph0" class="graph" transform="scale(1 1) rotate(0) translate(4 280)">
<title>dependencies</title>
<polygon fill="white" stroke="transparent" points="-4,4 -4,-280 1696,-280 1696,4 -4,4"/>
<text text-anchor="start" x="825.01" y="-42.4" font-family="Times-12" font-weight="bold" font-size="14.00">Legend</text>
<polygon fill="#ffffb3" stroke="transparent" points="612,-10 612,-30 632,-30 632,-10 612,-10"/>
<text text-anchor="start" x="635.63" y="-15.4" font-family="Times-12" font-size="14.00"> &#160;Declarations</text>
<polygon fill="#8dd3c7" stroke="transparent" points="725,-10 725,-30 745,-30 745,-10 725,-10"/>
<text text-anchor="start" x="748.73" y="-15.4" font-family="Times-12" font-size="14.00"> &#160;Module</text>
<polygon fill="#80b1d3" stroke="transparent" points="811,-10 811,-30 831,-30 831,-10 811,-10"/>
<text text-anchor="start" x="834.78" y="-15.4" font-family="Times-12" font-size="14.00"> &#160;Bootstrap</text>
<polygon fill="#fdb462" stroke="transparent" points="908,-10 908,-30 928,-30 928,-10 908,-10"/>
<text text-anchor="start" x="931.67" y="-15.4" font-family="Times-12" font-size="14.00"> &#160;Providers</text>
<polygon fill="#fb8072" stroke="transparent" points="1004,-10 1004,-30 1024,-30 1024,-10 1004,-10"/>
<text text-anchor="start" x="1027.73" y="-15.4" font-family="Times-12" font-size="14.00"> &#160;Exports</text>
<g id="clust1" class="cluster">
<title>cluster_ExamModule</title>
<polygon fill="none" stroke="black" stroke-dasharray="1,5" points="8,-70 8,-268 1684,-268 1684,-70 8,-70"/>
</g>
<g id="clust4" class="cluster">
<title>cluster_ExamModule_exports</title>
<polygon fill="none" stroke="black" points="573,-208 573,-260 1073,-260 1073,-208 573,-208"/>
</g>
<g id="clust6" class="cluster">
<title>cluster_ExamModule_providers</title>
<polygon fill="none" stroke="black" points="140,-78 140,-130 1676,-130 1676,-78 140,-78"/>
</g>
<g id="clust3" class="cluster">
<title>cluster_ExamModule_imports</title>
<polygon fill="none" stroke="black" points="16,-78 16,-130 132,-130 132,-78 16,-78"/>
</g>
<!-- OpenaiModule -->
<g id="node1" class="node">
<title>OpenaiModule</title>
<polygon fill="#8dd3c7" stroke="black" points="123.98,-122 120.98,-126 99.98,-126 96.98,-122 24.02,-122 24.02,-86 123.98,-86 123.98,-122"/>
<text text-anchor="middle" x="74" y="-99.8" font-family="Times,serif" font-size="14.00">OpenaiModule</text>
</g>
<!-- ExamModule -->
<g id="node2" class="node">
<title>ExamModule</title>
<polygon fill="#8dd3c7" stroke="black" points="897.21,-187 894.21,-191 873.21,-191 870.21,-187 804.79,-187 804.79,-151 897.21,-151 897.21,-187"/>
<text text-anchor="middle" x="851" y="-164.8" font-family="Times,serif" font-size="14.00">ExamModule</text>
</g>
<!-- OpenaiModule&#45;&gt;ExamModule -->
<g id="edge1" class="edge">
<title>OpenaiModule&#45;&gt;ExamModule</title>
<path fill="none" stroke="black" d="M74,-122.13C74,-142.57 74,-173 74,-173 74,-173 794.72,-173 794.72,-173"/>
<polygon fill="black" stroke="black" points="794.72,-176.5 804.72,-173 794.72,-169.5 794.72,-176.5"/>
</g>
<!-- ExamService  -->
<g id="node3" class="node">
<title>ExamService </title>
<polygon fill="#fb8072" stroke="black" points="1065.14,-252 970.86,-252 970.86,-216 1065.14,-216 1065.14,-252"/>
<text text-anchor="middle" x="1018" y="-229.8" font-family="Times,serif" font-size="14.00">ExamService </text>
</g>
<!-- ExamModule&#45;&gt;ExamService  -->
<g id="edge2" class="edge">
<title>ExamModule&#45;&gt;ExamService </title>
<path fill="none" stroke="black" stroke-dasharray="5,2" d="M897.52,-180C946.93,-180 1018,-180 1018,-180 1018,-180 1018,-205.72 1018,-205.72"/>
<polygon fill="black" stroke="black" points="1014.5,-205.72 1018,-215.72 1021.5,-205.72 1014.5,-205.72"/>
</g>
<!-- FetchExamAssignmentsProvider  -->
<g id="node4" class="node">
<title>FetchExamAssignmentsProvider </title>
<polygon fill="#fb8072" stroke="black" points="952.8,-252 749.2,-252 749.2,-216 952.8,-216 952.8,-252"/>
<text text-anchor="middle" x="851" y="-229.8" font-family="Times,serif" font-size="14.00">FetchExamAssignmentsProvider </text>
</g>
<!-- ExamModule&#45;&gt;FetchExamAssignmentsProvider  -->
<g id="edge3" class="edge">
<title>ExamModule&#45;&gt;FetchExamAssignmentsProvider </title>
<path fill="none" stroke="black" stroke-dasharray="5,2" d="M851,-187.11C851,-187.11 851,-205.99 851,-205.99"/>
<polygon fill="black" stroke="black" points="847.5,-205.99 851,-215.99 854.5,-205.99 847.5,-205.99"/>
</g>
<!-- GradeOeExamProvider  -->
<g id="node5" class="node">
<title>GradeOeExamProvider </title>
<polygon fill="#fb8072" stroke="black" points="731.38,-252 580.62,-252 580.62,-216 731.38,-216 731.38,-252"/>
<text text-anchor="middle" x="656" y="-229.8" font-family="Times,serif" font-size="14.00">GradeOeExamProvider </text>
</g>
<!-- ExamModule&#45;&gt;GradeOeExamProvider  -->
<g id="edge4" class="edge">
<title>ExamModule&#45;&gt;GradeOeExamProvider </title>
<path fill="none" stroke="black" stroke-dasharray="5,2" d="M804.53,-180C752.66,-180 675.89,-180 675.89,-180 675.89,-180 675.89,-205.72 675.89,-205.72"/>
<polygon fill="black" stroke="black" points="672.39,-205.72 675.89,-215.72 679.39,-205.72 672.39,-205.72"/>
</g>
<!-- CreateExamProvider -->
<g id="node6" class="node">
<title>CreateExamProvider</title>
<ellipse fill="#fdb462" stroke="black" cx="1576" cy="-104" rx="92.03" ry="18"/>
<text text-anchor="middle" x="1576" y="-99.8" font-family="Times,serif" font-size="14.00">CreateExamProvider</text>
</g>
<!-- CreateExamProvider&#45;&gt;ExamModule -->
<g id="edge5" class="edge">
<title>CreateExamProvider&#45;&gt;ExamModule</title>
<path fill="none" stroke="black" d="M1576,-122.13C1576,-142.57 1576,-173 1576,-173 1576,-173 907.18,-173 907.18,-173"/>
<polygon fill="black" stroke="black" points="907.18,-169.5 897.18,-173 907.18,-176.5 907.18,-169.5"/>
</g>
<!-- ExamReportProvider -->
<g id="node7" class="node">
<title>ExamReportProvider</title>
<ellipse fill="#fdb462" stroke="black" cx="1373" cy="-104" rx="93.2" ry="18"/>
<text text-anchor="middle" x="1373" y="-99.8" font-family="Times,serif" font-size="14.00">ExamReportProvider</text>
</g>
<!-- ExamReportProvider&#45;&gt;ExamModule -->
<g id="edge6" class="edge">
<title>ExamReportProvider&#45;&gt;ExamModule</title>
<path fill="none" stroke="black" d="M1373,-122.27C1373,-140.56 1373,-166 1373,-166 1373,-166 907.32,-166 907.32,-166"/>
<polygon fill="black" stroke="black" points="907.32,-162.5 897.32,-166 907.32,-169.5 907.32,-162.5"/>
</g>
<!-- ExamService -->
<g id="node8" class="node">
<title>ExamService</title>
<ellipse fill="#fdb462" stroke="black" cx="1199" cy="-104" rx="62.54" ry="18"/>
<text text-anchor="middle" x="1199" y="-99.8" font-family="Times,serif" font-size="14.00">ExamService</text>
</g>
<!-- ExamService&#45;&gt;ExamModule -->
<g id="edge7" class="edge">
<title>ExamService&#45;&gt;ExamModule</title>
<path fill="none" stroke="black" d="M1199,-122.01C1199,-138.05 1199,-159 1199,-159 1199,-159 907.21,-159 907.21,-159"/>
<polygon fill="black" stroke="black" points="907.21,-155.5 897.21,-159 907.21,-162.5 907.21,-155.5"/>
</g>
<!-- FetchExamAssignmentsProvider -->
<g id="node9" class="node">
<title>FetchExamAssignmentsProvider</title>
<ellipse fill="#fdb462" stroke="black" cx="980" cy="-104" rx="138.32" ry="18"/>
<text text-anchor="middle" x="980" y="-99.8" font-family="Times,serif" font-size="14.00">FetchExamAssignmentsProvider</text>
</g>
<!-- FetchExamAssignmentsProvider&#45;&gt;ExamModule -->
<g id="edge8" class="edge">
<title>FetchExamAssignmentsProvider&#45;&gt;ExamModule</title>
<path fill="none" stroke="black" d="M869.47,-115.03C869.47,-115.03 869.47,-140.78 869.47,-140.78"/>
<polygon fill="black" stroke="black" points="865.97,-140.78 869.47,-150.78 872.97,-140.78 865.97,-140.78"/>
</g>
<!-- GradeOeExamProvider -->
<g id="node10" class="node">
<title>GradeOeExamProvider</title>
<ellipse fill="#fdb462" stroke="black" cx="722" cy="-104" rx="101.83" ry="18"/>
<text text-anchor="middle" x="722" y="-99.8" font-family="Times,serif" font-size="14.00">GradeOeExamProvider</text>
</g>
<!-- GradeOeExamProvider&#45;&gt;ExamModule -->
<g id="edge9" class="edge">
<title>GradeOeExamProvider&#45;&gt;ExamModule</title>
<path fill="none" stroke="black" d="M814.28,-111.71C814.28,-111.71 814.28,-140.99 814.28,-140.99"/>
<polygon fill="black" stroke="black" points="810.78,-140.99 814.28,-150.99 817.78,-140.99 810.78,-140.99"/>
</g>
<!-- UpdateMcqExamProvider -->
<g id="node11" class="node">
<title>UpdateMcqExamProvider</title>
<ellipse fill="#fdb462" stroke="black" cx="490" cy="-104" rx="112.3" ry="18"/>
<text text-anchor="middle" x="490" y="-99.8" font-family="Times,serif" font-size="14.00">UpdateMcqExamProvider</text>
</g>
<!-- UpdateMcqExamProvider&#45;&gt;ExamModule -->
<g id="edge10" class="edge">
<title>UpdateMcqExamProvider&#45;&gt;ExamModule</title>
<path fill="none" stroke="black" d="M591.48,-112.12C591.48,-127.41 591.48,-159 591.48,-159 591.48,-159 794.6,-159 794.6,-159"/>
<polygon fill="black" stroke="black" points="794.6,-162.5 804.6,-159 794.6,-155.5 794.6,-162.5"/>
</g>
<!-- UpdateOeExamProvider -->
<g id="node12" class="node">
<title>UpdateOeExamProvider</title>
<ellipse fill="#fdb462" stroke="black" cx="254" cy="-104" rx="105.92" ry="18"/>
<text text-anchor="middle" x="254" y="-99.8" font-family="Times,serif" font-size="14.00">UpdateOeExamProvider</text>
</g>
<!-- UpdateOeExamProvider&#45;&gt;ExamModule -->
<g id="edge11" class="edge">
<title>UpdateOeExamProvider&#45;&gt;ExamModule</title>
<path fill="none" stroke="black" d="M254,-122.27C254,-140.56 254,-166 254,-166 254,-166 794.65,-166 794.65,-166"/>
<polygon fill="black" stroke="black" points="794.65,-169.5 804.65,-166 794.65,-162.5 794.65,-169.5"/>
</g>
</g>
</svg>
