<?xml version="1.0" encoding="UTF-8" standalone="no"?>
<!DOCTYPE svg PUBLIC "-//W3C//DTD SVG 1.1//EN"
 "http://www.w3.org/Graphics/SVG/1.1/DTD/svg11.dtd">
<!-- Generated by graphviz version 2.47.0 (20210316.0004)
 -->
<!-- Title: dependencies Pages: 1 -->
<svg width="1151pt" height="284pt"
 viewBox="0.00 0.00 1151.00 284.00" xmlns="http://www.w3.org/2000/svg" xmlns:xlink="http://www.w3.org/1999/xlink">
<g id="graph0" class="graph" transform="scale(1 1) rotate(0) translate(4 280)">
<title>dependencies</title>
<polygon fill="white" stroke="transparent" points="-4,4 -4,-280 1147,-280 1147,4 -4,4"/>
<text text-anchor="start" x="550.51" y="-42.4" font-family="Times-12" font-weight="bold" font-size="14.00">Legend</text>
<polygon fill="#ffffb3" stroke="transparent" points="337.5,-10 337.5,-30 357.5,-30 357.5,-10 337.5,-10"/>
<text text-anchor="start" x="361.13" y="-15.4" font-family="Times-12" font-size="14.00"> &#160;Declarations</text>
<polygon fill="#8dd3c7" stroke="transparent" points="450.5,-10 450.5,-30 470.5,-30 470.5,-10 450.5,-10"/>
<text text-anchor="start" x="474.23" y="-15.4" font-family="Times-12" font-size="14.00"> &#160;Module</text>
<polygon fill="#80b1d3" stroke="transparent" points="536.5,-10 536.5,-30 556.5,-30 556.5,-10 536.5,-10"/>
<text text-anchor="start" x="560.28" y="-15.4" font-family="Times-12" font-size="14.00"> &#160;Bootstrap</text>
<polygon fill="#fdb462" stroke="transparent" points="633.5,-10 633.5,-30 653.5,-30 653.5,-10 633.5,-10"/>
<text text-anchor="start" x="657.17" y="-15.4" font-family="Times-12" font-size="14.00"> &#160;Providers</text>
<polygon fill="#fb8072" stroke="transparent" points="729.5,-10 729.5,-30 749.5,-30 749.5,-10 729.5,-10"/>
<text text-anchor="start" x="753.23" y="-15.4" font-family="Times-12" font-size="14.00"> &#160;Exports</text>
<g id="clust1" class="cluster">
<title>cluster_ExamModule</title>
<polygon fill="none" stroke="black" stroke-dasharray="1,5" points="8,-70 8,-268 1135,-268 1135,-70 8,-70"/>
</g>
<g id="clust4" class="cluster">
<title>cluster_ExamModule_exports</title>
<polygon fill="none" stroke="black" points="525,-208 525,-260 745,-260 745,-208 525,-208"/>
</g>
<g id="clust6" class="cluster">
<title>cluster_ExamModule_providers</title>
<polygon fill="none" stroke="black" points="16,-78 16,-130 1127,-130 1127,-78 16,-78"/>
</g>
<!-- FetchExamAssignmentsProvider  -->
<g id="node1" class="node">
<title>FetchExamAssignmentsProvider </title>
<polygon fill="#fb8072" stroke="black" points="736.8,-252 533.2,-252 533.2,-216 736.8,-216 736.8,-252"/>
<text text-anchor="middle" x="635" y="-229.8" font-family="Times,serif" font-size="14.00">FetchExamAssignmentsProvider </text>
</g>
<!-- ExamModule -->
<g id="node2" class="node">
<title>ExamModule</title>
<polygon fill="#8dd3c7" stroke="black" points="681.21,-187 678.21,-191 657.21,-191 654.21,-187 588.79,-187 588.79,-151 681.21,-151 681.21,-187"/>
<text text-anchor="middle" x="635" y="-164.8" font-family="Times,serif" font-size="14.00">ExamModule</text>
</g>
<!-- ExamModule&#45;&gt;FetchExamAssignmentsProvider  -->
<g id="edge1" class="edge">
<title>ExamModule&#45;&gt;FetchExamAssignmentsProvider </title>
<path fill="none" stroke="black" stroke-dasharray="5,2" d="M635,-187.11C635,-187.11 635,-205.99 635,-205.99"/>
<polygon fill="black" stroke="black" points="631.5,-205.99 635,-215.99 638.5,-205.99 631.5,-205.99"/>
</g>
<!-- CreateExamProvider -->
<g id="node3" class="node">
<title>CreateExamProvider</title>
<ellipse fill="#fdb462" stroke="black" cx="1027" cy="-104" rx="92.03" ry="18"/>
<text text-anchor="middle" x="1027" y="-99.8" font-family="Times,serif" font-size="14.00">CreateExamProvider</text>
</g>
<!-- CreateExamProvider&#45;&gt;ExamModule -->
<g id="edge2" class="edge">
<title>CreateExamProvider&#45;&gt;ExamModule</title>
<path fill="none" stroke="black" d="M1027,-122.28C1027,-143.32 1027,-175 1027,-175 1027,-175 691.12,-175 691.12,-175"/>
<polygon fill="black" stroke="black" points="691.12,-171.5 681.12,-175 691.12,-178.5 691.12,-171.5"/>
</g>
<!-- ExamService -->
<g id="node4" class="node">
<title>ExamService</title>
<ellipse fill="#fdb462" stroke="black" cx="854" cy="-104" rx="62.54" ry="18"/>
<text text-anchor="middle" x="854" y="-99.8" font-family="Times,serif" font-size="14.00">ExamService</text>
</g>
<!-- ExamService&#45;&gt;ExamModule -->
<g id="edge3" class="edge">
<title>ExamService&#45;&gt;ExamModule</title>
<path fill="none" stroke="black" d="M854,-122.02C854,-139.37 854,-163 854,-163 854,-163 691.18,-163 691.18,-163"/>
<polygon fill="black" stroke="black" points="691.18,-159.5 681.18,-163 691.18,-166.5 691.18,-159.5"/>
</g>
<!-- FetchExamAssignmentsProvider -->
<g id="node5" class="node">
<title>FetchExamAssignmentsProvider</title>
<ellipse fill="#fdb462" stroke="black" cx="635" cy="-104" rx="138.32" ry="18"/>
<text text-anchor="middle" x="635" y="-99.8" font-family="Times,serif" font-size="14.00">FetchExamAssignmentsProvider</text>
</g>
<!-- FetchExamAssignmentsProvider&#45;&gt;ExamModule -->
<g id="edge4" class="edge">
<title>FetchExamAssignmentsProvider&#45;&gt;ExamModule</title>
<path fill="none" stroke="black" d="M635,-122.11C635,-122.11 635,-140.99 635,-140.99"/>
<polygon fill="black" stroke="black" points="631.5,-140.99 635,-150.99 638.5,-140.99 631.5,-140.99"/>
</g>
<!-- UpdateMcqExamProvider -->
<g id="node6" class="node">
<title>UpdateMcqExamProvider</title>
<ellipse fill="#fdb462" stroke="black" cx="366" cy="-104" rx="112.3" ry="18"/>
<text text-anchor="middle" x="366" y="-99.8" font-family="Times,serif" font-size="14.00">UpdateMcqExamProvider</text>
</g>
<!-- UpdateMcqExamProvider&#45;&gt;ExamModule -->
<g id="edge5" class="edge">
<title>UpdateMcqExamProvider&#45;&gt;ExamModule</title>
<path fill="none" stroke="black" d="M366,-122.02C366,-139.37 366,-163 366,-163 366,-163 578.76,-163 578.76,-163"/>
<polygon fill="black" stroke="black" points="578.76,-166.5 588.76,-163 578.76,-159.5 578.76,-166.5"/>
</g>
<!-- UpdateOeExamProvider -->
<g id="node7" class="node">
<title>UpdateOeExamProvider</title>
<ellipse fill="#fdb462" stroke="black" cx="130" cy="-104" rx="105.92" ry="18"/>
<text text-anchor="middle" x="130" y="-99.8" font-family="Times,serif" font-size="14.00">UpdateOeExamProvider</text>
</g>
<!-- UpdateOeExamProvider&#45;&gt;ExamModule -->
<g id="edge6" class="edge">
<title>UpdateOeExamProvider&#45;&gt;ExamModule</title>
<path fill="none" stroke="black" d="M130,-122.28C130,-143.32 130,-175 130,-175 130,-175 578.85,-175 578.85,-175"/>
<polygon fill="black" stroke="black" points="578.85,-178.5 588.85,-175 578.85,-171.5 578.85,-178.5"/>
</g>
</g>
</svg>
