<?xml version="1.0" encoding="UTF-8" standalone="no"?>
<!DOCTYPE svg PUBLIC "-//W3C//DTD SVG 1.1//EN"
 "http://www.w3.org/Graphics/SVG/1.1/DTD/svg11.dtd">
<!-- Generated by graphviz version 2.47.0 (20210316.0004)
 -->
<!-- Title: dependencies Pages: 1 -->
<svg width="752pt" height="211pt"
 viewBox="0.00 0.00 752.00 211.00" xmlns="http://www.w3.org/2000/svg" xmlns:xlink="http://www.w3.org/1999/xlink">
<g id="graph0" class="graph" transform="scale(1 1) rotate(0) translate(4 207)">
<title>dependencies</title>
<polygon fill="white" stroke="transparent" points="-4,4 -4,-207 748,-207 748,4 -4,4"/>
<text text-anchor="start" x="351.01" y="-42.4" font-family="Times-12" font-weight="bold" font-size="14.00">Legend</text>
<polygon fill="#ffffb3" stroke="transparent" points="138,-10 138,-30 158,-30 158,-10 138,-10"/>
<text text-anchor="start" x="161.63" y="-15.4" font-family="Times-12" font-size="14.00"> &#160;Declarations</text>
<polygon fill="#8dd3c7" stroke="transparent" points="251,-10 251,-30 271,-30 271,-10 251,-10"/>
<text text-anchor="start" x="274.73" y="-15.4" font-family="Times-12" font-size="14.00"> &#160;Module</text>
<polygon fill="#80b1d3" stroke="transparent" points="337,-10 337,-30 357,-30 357,-10 337,-10"/>
<text text-anchor="start" x="360.78" y="-15.4" font-family="Times-12" font-size="14.00"> &#160;Bootstrap</text>
<polygon fill="#fdb462" stroke="transparent" points="434,-10 434,-30 454,-30 454,-10 434,-10"/>
<text text-anchor="start" x="457.67" y="-15.4" font-family="Times-12" font-size="14.00"> &#160;Providers</text>
<polygon fill="#fb8072" stroke="transparent" points="530,-10 530,-30 550,-30 550,-10 530,-10"/>
<text text-anchor="start" x="553.73" y="-15.4" font-family="Times-12" font-size="14.00"> &#160;Exports</text>
<g id="clust1" class="cluster">
<title>cluster_AppModule</title>
<polygon fill="none" stroke="black" stroke-dasharray="1,5" points="8,-70 8,-195 736,-195 736,-70 8,-70"/>
</g>
<g id="clust3" class="cluster">
<title>cluster_AppModule_imports</title>
<polygon fill="none" stroke="black" points="154,-78 154,-130 728,-130 728,-78 154,-78"/>
</g>
<g id="clust6" class="cluster">
<title>cluster_AppModule_providers</title>
<polygon fill="none" stroke="black" points="16,-78 16,-130 146,-130 146,-78 16,-78"/>
</g>
<!-- AdminModule -->
<g id="node1" class="node">
<title>AdminModule</title>
<polygon fill="#8dd3c7" stroke="black" points="720.44,-122 717.44,-126 696.44,-126 693.44,-122 621.56,-122 621.56,-86 720.44,-86 720.44,-122"/>
<text text-anchor="middle" x="671" y="-99.8" font-family="Times,serif" font-size="14.00">AdminModule</text>
</g>
<!-- AppModule -->
<g id="node6" class="node">
<title>AppModule</title>
<polygon fill="#8dd3c7" stroke="black" points="430.66,-187 427.66,-191 406.66,-191 403.66,-187 347.34,-187 347.34,-151 430.66,-151 430.66,-187"/>
<text text-anchor="middle" x="389" y="-164.8" font-family="Times,serif" font-size="14.00">AppModule</text>
</g>
<!-- AdminModule&#45;&gt;AppModule -->
<g id="edge1" class="edge">
<title>AdminModule&#45;&gt;AppModule</title>
<path fill="none" stroke="black" d="M671,-122.28C671,-143.32 671,-175 671,-175 671,-175 440.91,-175 440.91,-175"/>
<polygon fill="black" stroke="black" points="440.91,-171.5 430.91,-175 440.91,-178.5 440.91,-171.5"/>
</g>
<!-- CacheModule -->
<g id="node2" class="node">
<title>CacheModule</title>
<polygon fill="#8dd3c7" stroke="black" points="604.03,-122 601.03,-126 580.03,-126 577.03,-122 509.97,-122 509.97,-86 604.03,-86 604.03,-122"/>
<text text-anchor="middle" x="557" y="-99.8" font-family="Times,serif" font-size="14.00">CacheModule</text>
</g>
<!-- CacheModule&#45;&gt;AppModule -->
<g id="edge2" class="edge">
<title>CacheModule&#45;&gt;AppModule</title>
<path fill="none" stroke="black" d="M557,-122.02C557,-139.37 557,-163 557,-163 557,-163 440.96,-163 440.96,-163"/>
<polygon fill="black" stroke="black" points="440.96,-159.5 430.96,-163 440.96,-166.5 440.96,-159.5"/>
</g>
<!-- ExamModule -->
<g id="node3" class="node">
<title>ExamModule</title>
<polygon fill="#8dd3c7" stroke="black" points="492.21,-122 489.21,-126 468.21,-126 465.21,-122 399.79,-122 399.79,-86 492.21,-86 492.21,-122"/>
<text text-anchor="middle" x="446" y="-99.8" font-family="Times,serif" font-size="14.00">ExamModule</text>
</g>
<!-- ExamModule&#45;&gt;AppModule -->
<g id="edge3" class="edge">
<title>ExamModule&#45;&gt;AppModule</title>
<path fill="none" stroke="black" d="M415.36,-122.11C415.36,-122.11 415.36,-140.99 415.36,-140.99"/>
<polygon fill="black" stroke="black" points="411.86,-140.99 415.36,-150.99 418.86,-140.99 411.86,-140.99"/>
</g>
<!-- OpenaiModule -->
<g id="node4" class="node">
<title>OpenaiModule</title>
<polygon fill="#8dd3c7" stroke="black" points="381.98,-122 378.98,-126 357.98,-126 354.98,-122 282.02,-122 282.02,-86 381.98,-86 381.98,-122"/>
<text text-anchor="middle" x="332" y="-99.8" font-family="Times,serif" font-size="14.00">OpenaiModule</text>
</g>
<!-- OpenaiModule&#45;&gt;AppModule -->
<g id="edge4" class="edge">
<title>OpenaiModule&#45;&gt;AppModule</title>
<path fill="none" stroke="black" d="M364.58,-122.11C364.58,-122.11 364.58,-140.99 364.58,-140.99"/>
<polygon fill="black" stroke="black" points="361.08,-140.99 364.58,-150.99 368.08,-140.99 361.08,-140.99"/>
</g>
<!-- StudentModule -->
<g id="node5" class="node">
<title>StudentModule</title>
<polygon fill="#8dd3c7" stroke="black" points="264.33,-122 261.33,-126 240.33,-126 237.33,-122 161.67,-122 161.67,-86 264.33,-86 264.33,-122"/>
<text text-anchor="middle" x="213" y="-99.8" font-family="Times,serif" font-size="14.00">StudentModule</text>
</g>
<!-- StudentModule&#45;&gt;AppModule -->
<g id="edge5" class="edge">
<title>StudentModule&#45;&gt;AppModule</title>
<path fill="none" stroke="black" d="M213,-122.02C213,-139.37 213,-163 213,-163 213,-163 337.29,-163 337.29,-163"/>
<polygon fill="black" stroke="black" points="337.29,-166.5 347.29,-163 337.29,-159.5 337.29,-166.5"/>
</g>
<!-- AppService -->
<g id="node7" class="node">
<title>AppService</title>
<ellipse fill="#fdb462" stroke="black" cx="81" cy="-104" rx="56.74" ry="18"/>
<text text-anchor="middle" x="81" y="-99.8" font-family="Times,serif" font-size="14.00">AppService</text>
</g>
<!-- AppService&#45;&gt;AppModule -->
<g id="edge6" class="edge">
<title>AppService&#45;&gt;AppModule</title>
<path fill="none" stroke="black" d="M81,-122.28C81,-143.32 81,-175 81,-175 81,-175 337.14,-175 337.14,-175"/>
<polygon fill="black" stroke="black" points="337.14,-178.5 347.14,-175 337.14,-171.5 337.14,-178.5"/>
</g>
</g>
</svg>
