<?xml version="1.0" encoding="UTF-8" standalone="no"?>
<!DOCTYPE svg PUBLIC "-//W3C//DTD SVG 1.1//EN"
 "http://www.w3.org/Graphics/SVG/1.1/DTD/svg11.dtd">
<!-- Generated by graphviz version 2.47.0 (20210316.0004)
 -->
<!-- Title: dependencies Pages: 1 -->
<svg width="522pt" height="211pt"
 viewBox="0.00 0.00 522.00 211.00" xmlns="http://www.w3.org/2000/svg" xmlns:xlink="http://www.w3.org/1999/xlink">
<g id="graph0" class="graph" transform="scale(1 1) rotate(0) translate(4 207)">
<title>dependencies</title>
<polygon fill="white" stroke="transparent" points="-4,4 -4,-207 518,-207 518,4 -4,4"/>
<text text-anchor="start" x="236.01" y="-42.4" font-family="Times-12" font-weight="bold" font-size="14.00">Legend</text>
<polygon fill="#ffffb3" stroke="transparent" points="23,-10 23,-30 43,-30 43,-10 23,-10"/>
<text text-anchor="start" x="46.63" y="-15.4" font-family="Times-12" font-size="14.00"> &#160;Declarations</text>
<polygon fill="#8dd3c7" stroke="transparent" points="136,-10 136,-30 156,-30 156,-10 136,-10"/>
<text text-anchor="start" x="159.73" y="-15.4" font-family="Times-12" font-size="14.00"> &#160;Module</text>
<polygon fill="#80b1d3" stroke="transparent" points="222,-10 222,-30 242,-30 242,-10 222,-10"/>
<text text-anchor="start" x="245.78" y="-15.4" font-family="Times-12" font-size="14.00"> &#160;Bootstrap</text>
<polygon fill="#fdb462" stroke="transparent" points="319,-10 319,-30 339,-30 339,-10 319,-10"/>
<text text-anchor="start" x="342.67" y="-15.4" font-family="Times-12" font-size="14.00"> &#160;Providers</text>
<polygon fill="#fb8072" stroke="transparent" points="415,-10 415,-30 435,-30 435,-10 415,-10"/>
<text text-anchor="start" x="438.73" y="-15.4" font-family="Times-12" font-size="14.00"> &#160;Exports</text>
<g id="clust1" class="cluster">
<title>cluster_AppModule</title>
<polygon fill="none" stroke="black" stroke-dasharray="1,5" points="8,-70 8,-195 506,-195 506,-70 8,-70"/>
</g>
<g id="clust6" class="cluster">
<title>cluster_AppModule_providers</title>
<polygon fill="none" stroke="black" points="368,-78 368,-130 498,-130 498,-78 368,-78"/>
</g>
<g id="clust3" class="cluster">
<title>cluster_AppModule_imports</title>
<polygon fill="none" stroke="black" points="16,-78 16,-130 360,-130 360,-78 16,-78"/>
</g>
<!-- AdminModule -->
<g id="node1" class="node">
<title>AdminModule</title>
<polygon fill="#8dd3c7" stroke="black" points="352.44,-122 349.44,-126 328.44,-126 325.44,-122 253.56,-122 253.56,-86 352.44,-86 352.44,-122"/>
<text text-anchor="middle" x="303" y="-99.8" font-family="Times,serif" font-size="14.00">AdminModule</text>
</g>
<!-- AppModule -->
<g id="node4" class="node">
<title>AppModule</title>
<polygon fill="#8dd3c7" stroke="black" points="287.66,-187 284.66,-191 263.66,-191 260.66,-187 204.34,-187 204.34,-151 287.66,-151 287.66,-187"/>
<text text-anchor="middle" x="246" y="-164.8" font-family="Times,serif" font-size="14.00">AppModule</text>
</g>
<!-- AdminModule&#45;&gt;AppModule -->
<g id="edge1" class="edge">
<title>AdminModule&#45;&gt;AppModule</title>
<path fill="none" stroke="black" d="M270.8,-122.11C270.8,-122.11 270.8,-140.99 270.8,-140.99"/>
<polygon fill="black" stroke="black" points="267.3,-140.99 270.8,-150.99 274.3,-140.99 267.3,-140.99"/>
</g>
<!-- ExamModule -->
<g id="node2" class="node">
<title>ExamModule</title>
<polygon fill="#8dd3c7" stroke="black" points="236.21,-122 233.21,-126 212.21,-126 209.21,-122 143.79,-122 143.79,-86 236.21,-86 236.21,-122"/>
<text text-anchor="middle" x="190" y="-99.8" font-family="Times,serif" font-size="14.00">ExamModule</text>
</g>
<!-- ExamModule&#45;&gt;AppModule -->
<g id="edge2" class="edge">
<title>ExamModule&#45;&gt;AppModule</title>
<path fill="none" stroke="black" d="M220.14,-122.11C220.14,-122.11 220.14,-140.99 220.14,-140.99"/>
<polygon fill="black" stroke="black" points="216.64,-140.99 220.14,-150.99 223.64,-140.99 216.64,-140.99"/>
</g>
<!-- StudentModule -->
<g id="node3" class="node">
<title>StudentModule</title>
<polygon fill="#8dd3c7" stroke="black" points="126.33,-122 123.33,-126 102.33,-126 99.33,-122 23.67,-122 23.67,-86 126.33,-86 126.33,-122"/>
<text text-anchor="middle" x="75" y="-99.8" font-family="Times,serif" font-size="14.00">StudentModule</text>
</g>
<!-- StudentModule&#45;&gt;AppModule -->
<g id="edge3" class="edge">
<title>StudentModule&#45;&gt;AppModule</title>
<path fill="none" stroke="black" d="M75,-122.11C75,-141.34 75,-169 75,-169 75,-169 194.17,-169 194.17,-169"/>
<polygon fill="black" stroke="black" points="194.17,-172.5 204.17,-169 194.17,-165.5 194.17,-172.5"/>
</g>
<!-- AppService -->
<g id="node5" class="node">
<title>AppService</title>
<ellipse fill="#fdb462" stroke="black" cx="433" cy="-104" rx="56.74" ry="18"/>
<text text-anchor="middle" x="433" y="-99.8" font-family="Times,serif" font-size="14.00">AppService</text>
</g>
<!-- AppService&#45;&gt;AppModule -->
<g id="edge4" class="edge">
<title>AppService&#45;&gt;AppModule</title>
<path fill="none" stroke="black" d="M433,-122.11C433,-141.34 433,-169 433,-169 433,-169 297.97,-169 297.97,-169"/>
<polygon fill="black" stroke="black" points="297.97,-165.5 287.97,-169 297.97,-172.5 297.97,-165.5"/>
</g>
</g>
</svg>
