<?xml version="1.0" encoding="UTF-8" standalone="no"?>
<!DOCTYPE svg PUBLIC "-//W3C//DTD SVG 1.1//EN"
 "http://www.w3.org/Graphics/SVG/1.1/DTD/svg11.dtd">
<!-- Generated by graphviz version 2.47.0 (20210316.0004)
 -->
<!-- Title: dependencies Pages: 1 -->
<svg width="1450pt" height="355pt"
 viewBox="0.00 0.00 1450.00 355.00" xmlns="http://www.w3.org/2000/svg" xmlns:xlink="http://www.w3.org/1999/xlink">
<g id="graph0" class="graph" transform="scale(1 1) rotate(0) translate(4 351)">
<title>dependencies</title>
<polygon fill="white" stroke="transparent" points="-4,4 -4,-351 1446,-351 1446,4 -4,4"/>
<text text-anchor="start" x="700.01" y="-42.4" font-family="Times-12" font-weight="bold" font-size="14.00">Legend</text>
<polygon fill="#ffffb3" stroke="transparent" points="487,-10 487,-30 507,-30 507,-10 487,-10"/>
<text text-anchor="start" x="510.63" y="-15.4" font-family="Times-12" font-size="14.00"> &#160;Declarations</text>
<polygon fill="#8dd3c7" stroke="transparent" points="600,-10 600,-30 620,-30 620,-10 600,-10"/>
<text text-anchor="start" x="623.73" y="-15.4" font-family="Times-12" font-size="14.00"> &#160;Module</text>
<polygon fill="#80b1d3" stroke="transparent" points="686,-10 686,-30 706,-30 706,-10 686,-10"/>
<text text-anchor="start" x="709.78" y="-15.4" font-family="Times-12" font-size="14.00"> &#160;Bootstrap</text>
<polygon fill="#fdb462" stroke="transparent" points="783,-10 783,-30 803,-30 803,-10 783,-10"/>
<text text-anchor="start" x="806.67" y="-15.4" font-family="Times-12" font-size="14.00"> &#160;Providers</text>
<polygon fill="#fb8072" stroke="transparent" points="879,-10 879,-30 899,-30 899,-10 879,-10"/>
<text text-anchor="start" x="902.73" y="-15.4" font-family="Times-12" font-size="14.00"> &#160;Exports</text>
<g id="clust1" class="cluster">
<title>cluster_AdminModule</title>
<polygon fill="none" stroke="black" stroke-dasharray="1,5" points="8,-146 8,-274 310,-274 310,-146 8,-146"/>
</g>
<g id="clust6" class="cluster">
<title>cluster_AdminModule_providers</title>
<polygon fill="none" stroke="black" points="16,-154 16,-206 302,-206 302,-154 16,-154"/>
</g>
<g id="clust7" class="cluster">
<title>cluster_AppModule</title>
<polygon fill="none" stroke="black" stroke-dasharray="1,5" points="318,-146 318,-339 594,-339 594,-146 318,-146"/>
</g>
<g id="clust9" class="cluster">
<title>cluster_AppModule_imports</title>
<polygon fill="none" stroke="black" points="468,-154 468,-274 586,-274 586,-154 468,-154"/>
</g>
<g id="clust12" class="cluster">
<title>cluster_AppModule_providers</title>
<polygon fill="none" stroke="black" points="326,-222 326,-274 456,-274 456,-222 326,-222"/>
</g>
<g id="clust13" class="cluster">
<title>cluster_ExamModule</title>
<polygon fill="none" stroke="black" stroke-dasharray="1,5" points="602,-146 602,-214 1434,-214 1434,-146 602,-146"/>
</g>
<g id="clust18" class="cluster">
<title>cluster_ExamModule_providers</title>
<polygon fill="none" stroke="black" points="610,-154 610,-206 1426,-206 1426,-154 610,-154"/>
</g>
<g id="clust19" class="cluster">
<title>cluster_StudentModule</title>
<polygon fill="none" stroke="black" stroke-dasharray="1,5" points="259,-70 259,-138 767,-138 767,-70 259,-70"/>
</g>
<g id="clust22" class="cluster">
<title>cluster_StudentModule_exports</title>
<polygon fill="none" stroke="black" points="639,-78 639,-130 759,-130 759,-78 639,-78"/>
</g>
<g id="clust24" class="cluster">
<title>cluster_StudentModule_providers</title>
<polygon fill="none" stroke="black" points="267,-78 267,-130 631,-130 631,-78 267,-78"/>
</g>
<!-- AdminService -->
<g id="node1" class="node">
<title>AdminService</title>
<ellipse fill="#fdb462" stroke="black" cx="227" cy="-180" rx="66.63" ry="18"/>
<text text-anchor="middle" x="227" y="-175.8" font-family="Times,serif" font-size="14.00">AdminService</text>
</g>
<!-- AdminModule -->
<g id="node3" class="node">
<title>AdminModule</title>
<polygon fill="#8dd3c7" stroke="black" points="276.44,-266 273.44,-270 252.44,-270 249.44,-266 177.56,-266 177.56,-230 276.44,-230 276.44,-266"/>
<text text-anchor="middle" x="227" y="-243.8" font-family="Times,serif" font-size="14.00">AdminModule</text>
</g>
<!-- AdminService&#45;&gt;AdminModule -->
<g id="edge1" class="edge">
<title>AdminService&#45;&gt;AdminModule</title>
<path fill="none" stroke="black" d="M227,-198.22C227,-198.22 227,-219.73 227,-219.73"/>
<polygon fill="black" stroke="black" points="223.5,-219.73 227,-229.73 230.5,-219.73 223.5,-219.73"/>
</g>
<!-- AuthService -->
<g id="node2" class="node">
<title>AuthService</title>
<ellipse fill="#fdb462" stroke="black" cx="83" cy="-180" rx="59.11" ry="18"/>
<text text-anchor="middle" x="83" y="-175.8" font-family="Times,serif" font-size="14.00">AuthService</text>
</g>
<!-- AuthService&#45;&gt;AdminModule -->
<g id="edge2" class="edge">
<title>AuthService&#45;&gt;AdminModule</title>
<path fill="none" stroke="black" d="M83,-198.22C83,-218.37 83,-248 83,-248 83,-248 167.44,-248 167.44,-248"/>
<polygon fill="black" stroke="black" points="167.44,-251.5 177.44,-248 167.44,-244.5 167.44,-251.5"/>
</g>
<!-- AppModule -->
<g id="node6" class="node">
<title>AppModule</title>
<polygon fill="#8dd3c7" stroke="black" points="470.66,-331 467.66,-335 446.66,-335 443.66,-331 387.34,-331 387.34,-295 470.66,-295 470.66,-331"/>
<text text-anchor="middle" x="429" y="-308.8" font-family="Times,serif" font-size="14.00">AppModule</text>
</g>
<!-- AdminModule&#45;&gt;AppModule -->
<g id="edge3" class="edge">
<title>AdminModule&#45;&gt;AppModule</title>
<path fill="none" stroke="black" d="M227,-266.11C227,-285.34 227,-313 227,-313 227,-313 377.15,-313 377.15,-313"/>
<polygon fill="black" stroke="black" points="377.15,-316.5 387.15,-313 377.15,-309.5 377.15,-316.5"/>
</g>
<!-- ExamModule -->
<g id="node4" class="node">
<title>ExamModule</title>
<polygon fill="#8dd3c7" stroke="black" points="578.21,-266 575.21,-270 554.21,-270 551.21,-266 485.79,-266 485.79,-230 578.21,-230 578.21,-266"/>
<text text-anchor="middle" x="532" y="-243.8" font-family="Times,serif" font-size="14.00">ExamModule</text>
</g>
<!-- ExamModule&#45;&gt;AppModule -->
<g id="edge4" class="edge">
<title>ExamModule&#45;&gt;AppModule</title>
<path fill="none" stroke="black" d="M485.5,-248C471.24,-248 459.22,-248 459.22,-248 459.22,-248 459.22,-284.89 459.22,-284.89"/>
<polygon fill="black" stroke="black" points="455.72,-284.89 459.22,-294.89 462.72,-284.89 455.72,-284.89"/>
</g>
<!-- StudentModule -->
<g id="node5" class="node">
<title>StudentModule</title>
<polygon fill="#8dd3c7" stroke="black" points="578.33,-198 575.33,-202 554.33,-202 551.33,-198 475.67,-198 475.67,-162 578.33,-162 578.33,-198"/>
<text text-anchor="middle" x="527" y="-175.8" font-family="Times,serif" font-size="14.00">StudentModule</text>
</g>
<!-- StudentModule&#45;&gt;ExamModule -->
<g id="edge7" class="edge">
<title>StudentModule&#45;&gt;ExamModule</title>
<path fill="none" stroke="black" d="M532,-198.22C532,-198.22 532,-219.73 532,-219.73"/>
<polygon fill="black" stroke="black" points="528.5,-219.73 532,-229.73 535.5,-219.73 528.5,-219.73"/>
</g>
<!-- StudentModule&#45;&gt;AppModule -->
<g id="edge5" class="edge">
<title>StudentModule&#45;&gt;AppModule</title>
<path fill="none" stroke="black" d="M480.87,-198.21C480.87,-234.64 480.87,-313 480.87,-313 480.87,-313 479.87,-313 479.87,-313"/>
<polygon fill="black" stroke="black" points="480.87,-309.5 470.87,-313 480.87,-316.5 480.87,-309.5"/>
</g>
<!-- StudentService  -->
<g id="node12" class="node">
<title>StudentService </title>
<polygon fill="#fb8072" stroke="black" points="751.26,-122 646.74,-122 646.74,-86 751.26,-86 751.26,-122"/>
<text text-anchor="middle" x="699" y="-99.8" font-family="Times,serif" font-size="14.00">StudentService </text>
</g>
<!-- StudentModule&#45;&gt;StudentService  -->
<g id="edge12" class="edge">
<title>StudentModule&#45;&gt;StudentService </title>
<path fill="none" stroke="black" stroke-dasharray="5,2" d="M544.05,-161.89C544.05,-152.1 544.05,-142 544.05,-142 544.05,-142 699,-142 699,-142 699,-142 699,-132.11 699,-132.11"/>
<polygon fill="black" stroke="black" points="702.5,-132.11 699,-122.11 695.5,-132.11 702.5,-132.11"/>
</g>
<!-- AppService -->
<g id="node7" class="node">
<title>AppService</title>
<ellipse fill="#fdb462" stroke="black" cx="391" cy="-248" rx="56.74" ry="18"/>
<text text-anchor="middle" x="391" y="-243.8" font-family="Times,serif" font-size="14.00">AppService</text>
</g>
<!-- AppService&#45;&gt;AppModule -->
<g id="edge6" class="edge">
<title>AppService&#45;&gt;AppModule</title>
<path fill="none" stroke="black" d="M417.4,-264.07C417.4,-264.07 417.4,-284.82 417.4,-284.82"/>
<polygon fill="black" stroke="black" points="413.9,-284.82 417.4,-294.82 420.9,-284.82 413.9,-284.82"/>
</g>
<!-- CreateExamProvider -->
<g id="node8" class="node">
<title>CreateExamProvider</title>
<ellipse fill="#fdb462" stroke="black" cx="1326" cy="-180" rx="92.03" ry="18"/>
<text text-anchor="middle" x="1326" y="-175.8" font-family="Times,serif" font-size="14.00">CreateExamProvider</text>
</g>
<!-- CreateExamProvider&#45;&gt;ExamModule -->
<g id="edge8" class="edge">
<title>CreateExamProvider&#45;&gt;ExamModule</title>
<path fill="none" stroke="black" d="M1326,-198.32C1326,-221.66 1326,-259 1326,-259 1326,-259 588.12,-259 588.12,-259"/>
<polygon fill="black" stroke="black" points="588.12,-255.5 578.12,-259 588.12,-262.5 588.12,-255.5"/>
</g>
<!-- ExamService -->
<g id="node9" class="node">
<title>ExamService</title>
<ellipse fill="#fdb462" stroke="black" cx="1153" cy="-180" rx="62.54" ry="18"/>
<text text-anchor="middle" x="1153" y="-175.8" font-family="Times,serif" font-size="14.00">ExamService</text>
</g>
<!-- ExamService&#45;&gt;ExamModule -->
<g id="edge9" class="edge">
<title>ExamService&#45;&gt;ExamModule</title>
<path fill="none" stroke="black" d="M1153,-198.17C1153,-219.5 1153,-252 1153,-252 1153,-252 588.17,-252 588.17,-252"/>
<polygon fill="black" stroke="black" points="588.17,-248.5 578.17,-252 588.17,-255.5 588.17,-248.5"/>
</g>
<!-- UpdateMcqExamProvider -->
<g id="node10" class="node">
<title>UpdateMcqExamProvider</title>
<ellipse fill="#fdb462" stroke="black" cx="960" cy="-180" rx="112.3" ry="18"/>
<text text-anchor="middle" x="960" y="-175.8" font-family="Times,serif" font-size="14.00">UpdateMcqExamProvider</text>
</g>
<!-- UpdateMcqExamProvider&#45;&gt;ExamModule -->
<g id="edge10" class="edge">
<title>UpdateMcqExamProvider&#45;&gt;ExamModule</title>
<path fill="none" stroke="black" d="M960,-198.11C960,-217.34 960,-245 960,-245 960,-245 588.21,-245 588.21,-245"/>
<polygon fill="black" stroke="black" points="588.21,-241.5 578.21,-245 588.21,-248.5 588.21,-241.5"/>
</g>
<!-- UpdateOeExamProvider -->
<g id="node11" class="node">
<title>UpdateOeExamProvider</title>
<ellipse fill="#fdb462" stroke="black" cx="724" cy="-180" rx="105.92" ry="18"/>
<text text-anchor="middle" x="724" y="-175.8" font-family="Times,serif" font-size="14.00">UpdateOeExamProvider</text>
</g>
<!-- UpdateOeExamProvider&#45;&gt;ExamModule -->
<g id="edge11" class="edge">
<title>UpdateOeExamProvider&#45;&gt;ExamModule</title>
<path fill="none" stroke="black" d="M724,-198.03C724,-215.06 724,-238 724,-238 724,-238 588.48,-238 588.48,-238"/>
<polygon fill="black" stroke="black" points="588.48,-234.5 578.48,-238 588.48,-241.5 588.48,-234.5"/>
</g>
<!-- InsertStudentProvider -->
<g id="node13" class="node">
<title>InsertStudentProvider</title>
<ellipse fill="#fdb462" stroke="black" cx="527" cy="-104" rx="95.56" ry="18"/>
<text text-anchor="middle" x="527" y="-99.8" font-family="Times,serif" font-size="14.00">InsertStudentProvider</text>
</g>
<!-- InsertStudentProvider&#45;&gt;StudentModule -->
<g id="edge13" class="edge">
<title>InsertStudentProvider&#45;&gt;StudentModule</title>
<path fill="none" stroke="black" d="M509.95,-122.01C509.95,-122.01 509.95,-151.85 509.95,-151.85"/>
<polygon fill="black" stroke="black" points="506.45,-151.85 509.95,-161.85 513.45,-151.85 506.45,-151.85"/>
</g>
<!-- StudentService -->
<g id="node14" class="node">
<title>StudentService</title>
<ellipse fill="#fdb462" stroke="black" cx="344" cy="-104" rx="69.5" ry="18"/>
<text text-anchor="middle" x="344" y="-99.8" font-family="Times,serif" font-size="14.00">StudentService</text>
</g>
<!-- StudentService&#45;&gt;StudentModule -->
<g id="edge14" class="edge">
<title>StudentService&#45;&gt;StudentModule</title>
<path fill="none" stroke="black" d="M373.94,-120.49C373.94,-142.84 373.94,-180 373.94,-180 373.94,-180 465.61,-180 465.61,-180"/>
<polygon fill="black" stroke="black" points="465.61,-183.5 475.61,-180 465.61,-176.5 465.61,-183.5"/>
</g>
</g>
</svg>
