<?xml version="1.0" encoding="UTF-8" standalone="no"?>
<!DOCTYPE svg PUBLIC "-//W3C//DTD SVG 1.1//EN"
 "http://www.w3.org/Graphics/SVG/1.1/DTD/svg11.dtd">
<!-- Generated by graphviz version 2.47.0 (20210316.0004)
 -->
<!-- Title: dependencies Pages: 1 -->
<svg width="1524pt" height="287pt"
 viewBox="0.00 0.00 1524.00 287.00" xmlns="http://www.w3.org/2000/svg" xmlns:xlink="http://www.w3.org/1999/xlink">
<g id="graph0" class="graph" transform="scale(1 1) rotate(0) translate(4 283)">
<title>dependencies</title>
<polygon fill="white" stroke="transparent" points="-4,4 -4,-283 1520,-283 1520,4 -4,4"/>
<text text-anchor="start" x="737.01" y="-42.4" font-family="Times-12" font-weight="bold" font-size="14.00">Legend</text>
<polygon fill="#ffffb3" stroke="transparent" points="524,-10 524,-30 544,-30 544,-10 524,-10"/>
<text text-anchor="start" x="547.63" y="-15.4" font-family="Times-12" font-size="14.00"> &#160;Declarations</text>
<polygon fill="#8dd3c7" stroke="transparent" points="637,-10 637,-30 657,-30 657,-10 637,-10"/>
<text text-anchor="start" x="660.73" y="-15.4" font-family="Times-12" font-size="14.00"> &#160;Module</text>
<polygon fill="#80b1d3" stroke="transparent" points="723,-10 723,-30 743,-30 743,-10 723,-10"/>
<text text-anchor="start" x="746.78" y="-15.4" font-family="Times-12" font-size="14.00"> &#160;Bootstrap</text>
<polygon fill="#fdb462" stroke="transparent" points="820,-10 820,-30 840,-30 840,-10 820,-10"/>
<text text-anchor="start" x="843.67" y="-15.4" font-family="Times-12" font-size="14.00"> &#160;Providers</text>
<polygon fill="#fb8072" stroke="transparent" points="916,-10 916,-30 936,-30 936,-10 916,-10"/>
<text text-anchor="start" x="939.73" y="-15.4" font-family="Times-12" font-size="14.00"> &#160;Exports</text>
<g id="clust1" class="cluster">
<title>cluster_AdminModule</title>
<polygon fill="none" stroke="black" stroke-dasharray="1,5" points="8,-70 8,-206 310,-206 310,-70 8,-70"/>
</g>
<g id="clust6" class="cluster">
<title>cluster_AdminModule_providers</title>
<polygon fill="none" stroke="black" points="16,-78 16,-130 302,-130 302,-78 16,-78"/>
</g>
<g id="clust7" class="cluster">
<title>cluster_AppModule</title>
<polygon fill="none" stroke="black" stroke-dasharray="1,5" points="928,-70 928,-271 1202,-271 1202,-70 928,-70"/>
</g>
<g id="clust9" class="cluster">
<title>cluster_AppModule_imports</title>
<polygon fill="none" stroke="black" points="1074,-78 1074,-206 1192,-206 1192,-78 1074,-78"/>
</g>
<g id="clust12" class="cluster">
<title>cluster_AppModule_providers</title>
<polygon fill="none" stroke="black" points="936,-154 936,-206 1066,-206 1066,-154 936,-154"/>
</g>
<g id="clust13" class="cluster">
<title>cluster_ExamModule</title>
<polygon fill="none" stroke="black" stroke-dasharray="1,5" points="318,-70 318,-138 920,-138 920,-70 318,-70"/>
</g>
<g id="clust18" class="cluster">
<title>cluster_ExamModule_providers</title>
<polygon fill="none" stroke="black" points="326,-78 326,-130 912,-130 912,-78 326,-78"/>
</g>
<g id="clust19" class="cluster">
<title>cluster_StudentModule</title>
<polygon fill="none" stroke="black" stroke-dasharray="1,5" points="1210,-146 1210,-214 1508,-214 1508,-146 1210,-146"/>
</g>
<g id="clust22" class="cluster">
<title>cluster_StudentModule_exports</title>
<polygon fill="none" stroke="black" points="1380,-154 1380,-206 1500,-206 1500,-154 1380,-154"/>
</g>
<g id="clust24" class="cluster">
<title>cluster_StudentModule_providers</title>
<polygon fill="none" stroke="black" points="1218,-154 1218,-206 1372,-206 1372,-154 1218,-154"/>
</g>
<!-- AdminService -->
<g id="node1" class="node">
<title>AdminService</title>
<ellipse fill="#fdb462" stroke="black" cx="227" cy="-104" rx="66.63" ry="18"/>
<text text-anchor="middle" x="227" y="-99.8" font-family="Times,serif" font-size="14.00">AdminService</text>
</g>
<!-- AdminModule -->
<g id="node3" class="node">
<title>AdminModule</title>
<polygon fill="#8dd3c7" stroke="black" points="276.44,-198 273.44,-202 252.44,-202 249.44,-198 177.56,-198 177.56,-162 276.44,-162 276.44,-198"/>
<text text-anchor="middle" x="227" y="-175.8" font-family="Times,serif" font-size="14.00">AdminModule</text>
</g>
<!-- AdminService&#45;&gt;AdminModule -->
<g id="edge1" class="edge">
<title>AdminService&#45;&gt;AdminModule</title>
<path fill="none" stroke="black" d="M227,-122.01C227,-122.01 227,-151.85 227,-151.85"/>
<polygon fill="black" stroke="black" points="223.5,-151.85 227,-161.85 230.5,-151.85 223.5,-151.85"/>
</g>
<!-- AuthService -->
<g id="node2" class="node">
<title>AuthService</title>
<ellipse fill="#fdb462" stroke="black" cx="83" cy="-104" rx="59.11" ry="18"/>
<text text-anchor="middle" x="83" y="-99.8" font-family="Times,serif" font-size="14.00">AuthService</text>
</g>
<!-- AuthService&#45;&gt;AdminModule -->
<g id="edge2" class="edge">
<title>AuthService&#45;&gt;AdminModule</title>
<path fill="none" stroke="black" d="M83,-122.01C83,-144.49 83,-180 83,-180 83,-180 167.44,-180 167.44,-180"/>
<polygon fill="black" stroke="black" points="167.44,-183.5 177.44,-180 167.44,-176.5 167.44,-183.5"/>
</g>
<!-- AppModule -->
<g id="node6" class="node">
<title>AppModule</title>
<polygon fill="#8dd3c7" stroke="black" points="1105.66,-263 1102.66,-267 1081.66,-267 1078.66,-263 1022.34,-263 1022.34,-227 1105.66,-227 1105.66,-263"/>
<text text-anchor="middle" x="1064" y="-240.8" font-family="Times,serif" font-size="14.00">AppModule</text>
</g>
<!-- AdminModule&#45;&gt;AppModule -->
<g id="edge3" class="edge">
<title>AdminModule&#45;&gt;AppModule</title>
<path fill="none" stroke="black" d="M227,-198.11C227,-217.34 227,-245 227,-245 227,-245 1012.21,-245 1012.21,-245"/>
<polygon fill="black" stroke="black" points="1012.21,-248.5 1022.21,-245 1012.21,-241.5 1012.21,-248.5"/>
</g>
<!-- ExamModule -->
<g id="node4" class="node">
<title>ExamModule</title>
<polygon fill="#8dd3c7" stroke="black" points="1174.21,-198 1171.21,-202 1150.21,-202 1147.21,-198 1081.79,-198 1081.79,-162 1174.21,-162 1174.21,-198"/>
<text text-anchor="middle" x="1128" y="-175.8" font-family="Times,serif" font-size="14.00">ExamModule</text>
</g>
<!-- ExamModule&#45;&gt;AppModule -->
<g id="edge4" class="edge">
<title>ExamModule&#45;&gt;AppModule</title>
<path fill="none" stroke="black" d="M1093.86,-198.11C1093.86,-198.11 1093.86,-216.99 1093.86,-216.99"/>
<polygon fill="black" stroke="black" points="1090.36,-216.99 1093.86,-226.99 1097.36,-216.99 1090.36,-216.99"/>
</g>
<!-- StudentModule -->
<g id="node5" class="node">
<title>StudentModule</title>
<polygon fill="#8dd3c7" stroke="black" points="1184.33,-122 1181.33,-126 1160.33,-126 1157.33,-122 1081.67,-122 1081.67,-86 1184.33,-86 1184.33,-122"/>
<text text-anchor="middle" x="1133" y="-99.8" font-family="Times,serif" font-size="14.00">StudentModule</text>
</g>
<!-- StudentModule&#45;&gt;ExamModule -->
<g id="edge7" class="edge">
<title>StudentModule&#45;&gt;ExamModule</title>
<path fill="none" stroke="black" d="M1151.05,-122.01C1151.05,-122.01 1151.05,-151.85 1151.05,-151.85"/>
<polygon fill="black" stroke="black" points="1147.55,-151.85 1151.05,-161.85 1154.55,-151.85 1147.55,-151.85"/>
</g>
<!-- StudentModule&#45;&gt;AppModule -->
<g id="edge5" class="edge">
<title>StudentModule&#45;&gt;AppModule</title>
<path fill="none" stroke="black" d="M1081.64,-110C1072.43,-110 1065.69,-110 1065.69,-110 1065.69,-110 1065.69,-216.79 1065.69,-216.79"/>
<polygon fill="black" stroke="black" points="1062.19,-216.79 1065.69,-226.79 1069.19,-216.79 1062.19,-216.79"/>
</g>
<!-- StudentService  -->
<g id="node11" class="node">
<title>StudentService </title>
<polygon fill="#fb8072" stroke="black" points="1492.26,-198 1387.74,-198 1387.74,-162 1492.26,-162 1492.26,-198"/>
<text text-anchor="middle" x="1440" y="-175.8" font-family="Times,serif" font-size="14.00">StudentService </text>
</g>
<!-- StudentModule&#45;&gt;StudentService  -->
<g id="edge11" class="edge">
<title>StudentModule&#45;&gt;StudentService </title>
<path fill="none" stroke="black" stroke-dasharray="5,2" d="M1184.38,-104C1271.78,-104 1440,-104 1440,-104 1440,-104 1440,-151.99 1440,-151.99"/>
<polygon fill="black" stroke="black" points="1436.5,-151.99 1440,-161.99 1443.5,-151.99 1436.5,-151.99"/>
</g>
<!-- AppService -->
<g id="node7" class="node">
<title>AppService</title>
<ellipse fill="#fdb462" stroke="black" cx="1001" cy="-180" rx="56.74" ry="18"/>
<text text-anchor="middle" x="1001" y="-175.8" font-family="Times,serif" font-size="14.00">AppService</text>
</g>
<!-- AppService&#45;&gt;AppModule -->
<g id="edge6" class="edge">
<title>AppService&#45;&gt;AppModule</title>
<path fill="none" stroke="black" d="M1039.9,-193.15C1039.9,-193.15 1039.9,-216.69 1039.9,-216.69"/>
<polygon fill="black" stroke="black" points="1036.4,-216.69 1039.9,-226.69 1043.4,-216.69 1036.4,-216.69"/>
</g>
<!-- CreateExamProvider -->
<g id="node8" class="node">
<title>CreateExamProvider</title>
<ellipse fill="#fdb462" stroke="black" cx="812" cy="-104" rx="92.03" ry="18"/>
<text text-anchor="middle" x="812" y="-99.8" font-family="Times,serif" font-size="14.00">CreateExamProvider</text>
</g>
<!-- CreateExamProvider&#45;&gt;ExamModule -->
<g id="edge8" class="edge">
<title>CreateExamProvider&#45;&gt;ExamModule</title>
<path fill="none" stroke="black" d="M898.8,-98C975,-98 1073.76,-98 1073.76,-98 1073.76,-98 1073.76,-180 1073.76,-180 1073.76,-180 1074.56,-180 1074.56,-180"/>
<polygon fill="black" stroke="black" points="1071.77,-183.5 1081.77,-180 1071.77,-176.5 1071.77,-183.5"/>
</g>
<!-- ExamService -->
<g id="node9" class="node">
<title>ExamService</title>
<ellipse fill="#fdb462" stroke="black" cx="639" cy="-104" rx="62.54" ry="18"/>
<text text-anchor="middle" x="639" y="-99.8" font-family="Times,serif" font-size="14.00">ExamService</text>
</g>
<!-- ExamService&#45;&gt;ExamModule -->
<g id="edge9" class="edge">
<title>ExamService&#45;&gt;ExamModule</title>
<path fill="none" stroke="black" d="M639,-122.24C639,-129.43 639,-136 639,-136 639,-136 1128,-136 1128,-136 1128,-136 1128,-151.85 1128,-151.85"/>
<polygon fill="black" stroke="black" points="1124.5,-151.85 1128,-161.85 1131.5,-151.85 1124.5,-151.85"/>
</g>
<!-- UpdateMcqExamProvider -->
<g id="node10" class="node">
<title>UpdateMcqExamProvider</title>
<ellipse fill="#fdb462" stroke="black" cx="446" cy="-104" rx="112.3" ry="18"/>
<text text-anchor="middle" x="446" y="-99.8" font-family="Times,serif" font-size="14.00">UpdateMcqExamProvider</text>
</g>
<!-- UpdateMcqExamProvider&#45;&gt;ExamModule -->
<g id="edge10" class="edge">
<title>UpdateMcqExamProvider&#45;&gt;ExamModule</title>
<path fill="none" stroke="black" d="M446,-122.04C446,-134.56 446,-149 446,-149 446,-149 1104.95,-149 1104.95,-149 1104.95,-149 1104.95,-151.97 1104.95,-151.97"/>
<polygon fill="black" stroke="black" points="1101.45,-151.97 1104.95,-161.97 1108.45,-151.97 1101.45,-151.97"/>
</g>
<!-- StudentService -->
<g id="node12" class="node">
<title>StudentService</title>
<ellipse fill="#fdb462" stroke="black" cx="1295" cy="-180" rx="69.5" ry="18"/>
<text text-anchor="middle" x="1295" y="-175.8" font-family="Times,serif" font-size="14.00">StudentService</text>
</g>
<!-- StudentService&#45;&gt;StudentModule -->
<g id="edge12" class="edge">
<title>StudentService&#45;&gt;StudentModule</title>
<path fill="none" stroke="black" d="M1225.26,-180C1200.72,-180 1179.13,-180 1179.13,-180 1179.13,-180 1179.13,-132.01 1179.13,-132.01"/>
<polygon fill="black" stroke="black" points="1182.63,-132.01 1179.13,-122.01 1175.63,-132.01 1182.63,-132.01"/>
</g>
</g>
</svg>
