<?xml version="1.0" encoding="UTF-8" standalone="no"?>
<!DOCTYPE svg PUBLIC "-//W3C//DTD SVG 1.1//EN"
 "http://www.w3.org/Graphics/SVG/1.1/DTD/svg11.dtd">
<!-- Generated by graphviz version 2.47.0 (20210316.0004)
 -->
<!-- Title: dependencies Pages: 1 -->
<svg width="2205pt" height="287pt"
 viewBox="0.00 0.00 2205.00 287.00" xmlns="http://www.w3.org/2000/svg" xmlns:xlink="http://www.w3.org/1999/xlink">
<g id="graph0" class="graph" transform="scale(1 1) rotate(0) translate(4 283)">
<title>dependencies</title>
<polygon fill="white" stroke="transparent" points="-4,4 -4,-283 2201,-283 2201,4 -4,4"/>
<text text-anchor="start" x="1077.51" y="-42.4" font-family="Times-12" font-weight="bold" font-size="14.00">Legend</text>
<polygon fill="#ffffb3" stroke="transparent" points="864.5,-10 864.5,-30 884.5,-30 884.5,-10 864.5,-10"/>
<text text-anchor="start" x="888.13" y="-15.4" font-family="Times-12" font-size="14.00"> &#160;Declarations</text>
<polygon fill="#8dd3c7" stroke="transparent" points="977.5,-10 977.5,-30 997.5,-30 997.5,-10 977.5,-10"/>
<text text-anchor="start" x="1001.23" y="-15.4" font-family="Times-12" font-size="14.00"> &#160;Module</text>
<polygon fill="#80b1d3" stroke="transparent" points="1063.5,-10 1063.5,-30 1083.5,-30 1083.5,-10 1063.5,-10"/>
<text text-anchor="start" x="1087.28" y="-15.4" font-family="Times-12" font-size="14.00"> &#160;Bootstrap</text>
<polygon fill="#fdb462" stroke="transparent" points="1160.5,-10 1160.5,-30 1180.5,-30 1180.5,-10 1160.5,-10"/>
<text text-anchor="start" x="1184.17" y="-15.4" font-family="Times-12" font-size="14.00"> &#160;Providers</text>
<polygon fill="#fb8072" stroke="transparent" points="1256.5,-10 1256.5,-30 1276.5,-30 1276.5,-10 1256.5,-10"/>
<text text-anchor="start" x="1280.23" y="-15.4" font-family="Times-12" font-size="14.00"> &#160;Exports</text>
<g id="clust1" class="cluster">
<title>cluster_AdminModule</title>
<polygon fill="none" stroke="black" stroke-dasharray="1,5" points="8,-70 8,-206 310,-206 310,-70 8,-70"/>
</g>
<g id="clust6" class="cluster">
<title>cluster_AdminModule_providers</title>
<polygon fill="none" stroke="black" points="16,-78 16,-130 302,-130 302,-78 16,-78"/>
</g>
<g id="clust7" class="cluster">
<title>cluster_AppModule</title>
<polygon fill="none" stroke="black" stroke-dasharray="1,5" points="1050,-146 1050,-271 1432,-271 1432,-146 1050,-146"/>
</g>
<g id="clust9" class="cluster">
<title>cluster_AppModule_imports</title>
<polygon fill="none" stroke="black" points="1196,-154 1196,-206 1424,-206 1424,-154 1196,-154"/>
</g>
<g id="clust12" class="cluster">
<title>cluster_AppModule_providers</title>
<polygon fill="none" stroke="black" points="1058,-154 1058,-206 1188,-206 1188,-154 1058,-154"/>
</g>
<g id="clust13" class="cluster">
<title>cluster_ExamModule</title>
<polygon fill="none" stroke="black" stroke-dasharray="1,5" points="318,-70 318,-138 1673,-138 1673,-70 318,-70"/>
</g>
<g id="clust16" class="cluster">
<title>cluster_ExamModule_exports</title>
<polygon fill="none" stroke="black" points="1445,-78 1445,-130 1665,-130 1665,-78 1445,-78"/>
</g>
<g id="clust18" class="cluster">
<title>cluster_ExamModule_providers</title>
<polygon fill="none" stroke="black" points="326,-78 326,-130 1437,-130 1437,-78 326,-78"/>
</g>
<g id="clust19" class="cluster">
<title>cluster_StudentModule</title>
<polygon fill="none" stroke="black" stroke-dasharray="1,5" points="1681,-70 1681,-138 2189,-138 2189,-70 1681,-70"/>
</g>
<g id="clust22" class="cluster">
<title>cluster_StudentModule_exports</title>
<polygon fill="none" stroke="black" points="2061,-78 2061,-130 2181,-130 2181,-78 2061,-78"/>
</g>
<g id="clust24" class="cluster">
<title>cluster_StudentModule_providers</title>
<polygon fill="none" stroke="black" points="1689,-78 1689,-130 2053,-130 2053,-78 1689,-78"/>
</g>
<!-- AdminService -->
<g id="node1" class="node">
<title>AdminService</title>
<ellipse fill="#fdb462" stroke="black" cx="227" cy="-104" rx="66.63" ry="18"/>
<text text-anchor="middle" x="227" y="-99.8" font-family="Times,serif" font-size="14.00">AdminService</text>
</g>
<!-- AdminModule -->
<g id="node3" class="node">
<title>AdminModule</title>
<polygon fill="#8dd3c7" stroke="black" points="276.44,-198 273.44,-202 252.44,-202 249.44,-198 177.56,-198 177.56,-162 276.44,-162 276.44,-198"/>
<text text-anchor="middle" x="227" y="-175.8" font-family="Times,serif" font-size="14.00">AdminModule</text>
</g>
<!-- AdminService&#45;&gt;AdminModule -->
<g id="edge1" class="edge">
<title>AdminService&#45;&gt;AdminModule</title>
<path fill="none" stroke="black" d="M227,-122.01C227,-122.01 227,-151.85 227,-151.85"/>
<polygon fill="black" stroke="black" points="223.5,-151.85 227,-161.85 230.5,-151.85 223.5,-151.85"/>
</g>
<!-- AuthService -->
<g id="node2" class="node">
<title>AuthService</title>
<ellipse fill="#fdb462" stroke="black" cx="83" cy="-104" rx="59.11" ry="18"/>
<text text-anchor="middle" x="83" y="-99.8" font-family="Times,serif" font-size="14.00">AuthService</text>
</g>
<!-- AuthService&#45;&gt;AdminModule -->
<g id="edge2" class="edge">
<title>AuthService&#45;&gt;AdminModule</title>
<path fill="none" stroke="black" d="M83,-122.01C83,-144.49 83,-180 83,-180 83,-180 167.44,-180 167.44,-180"/>
<polygon fill="black" stroke="black" points="167.44,-183.5 177.44,-180 167.44,-176.5 167.44,-183.5"/>
</g>
<!-- AppModule -->
<g id="node6" class="node">
<title>AppModule</title>
<polygon fill="#8dd3c7" stroke="black" points="1227.66,-263 1224.66,-267 1203.66,-267 1200.66,-263 1144.34,-263 1144.34,-227 1227.66,-227 1227.66,-263"/>
<text text-anchor="middle" x="1186" y="-240.8" font-family="Times,serif" font-size="14.00">AppModule</text>
</g>
<!-- AdminModule&#45;&gt;AppModule -->
<g id="edge3" class="edge">
<title>AdminModule&#45;&gt;AppModule</title>
<path fill="none" stroke="black" d="M227,-198.11C227,-217.34 227,-245 227,-245 227,-245 1134.18,-245 1134.18,-245"/>
<polygon fill="black" stroke="black" points="1134.18,-248.5 1144.18,-245 1134.18,-241.5 1134.18,-248.5"/>
</g>
<!-- ExamModule -->
<g id="node4" class="node">
<title>ExamModule</title>
<polygon fill="#8dd3c7" stroke="black" points="1296.21,-198 1293.21,-202 1272.21,-202 1269.21,-198 1203.79,-198 1203.79,-162 1296.21,-162 1296.21,-198"/>
<text text-anchor="middle" x="1250" y="-175.8" font-family="Times,serif" font-size="14.00">ExamModule</text>
</g>
<!-- ExamModule&#45;&gt;AppModule -->
<g id="edge4" class="edge">
<title>ExamModule&#45;&gt;AppModule</title>
<path fill="none" stroke="black" d="M1215.86,-198.11C1215.86,-198.11 1215.86,-216.99 1215.86,-216.99"/>
<polygon fill="black" stroke="black" points="1212.36,-216.99 1215.86,-226.99 1219.36,-216.99 1212.36,-216.99"/>
</g>
<!-- FetchExamAssignmentsProvider  -->
<g id="node8" class="node">
<title>FetchExamAssignmentsProvider </title>
<polygon fill="#fb8072" stroke="black" points="1656.8,-122 1453.2,-122 1453.2,-86 1656.8,-86 1656.8,-122"/>
<text text-anchor="middle" x="1555" y="-99.8" font-family="Times,serif" font-size="14.00">FetchExamAssignmentsProvider </text>
</g>
<!-- ExamModule&#45;&gt;FetchExamAssignmentsProvider  -->
<g id="edge7" class="edge">
<title>ExamModule&#45;&gt;FetchExamAssignmentsProvider </title>
<path fill="none" stroke="black" stroke-dasharray="5,2" d="M1279.06,-161.94C1279.06,-157.51 1279.06,-154 1279.06,-154 1279.06,-154 1555,-154 1555,-154 1555,-154 1555,-132.05 1555,-132.05"/>
<polygon fill="black" stroke="black" points="1558.5,-132.05 1555,-122.05 1551.5,-132.05 1558.5,-132.05"/>
</g>
<!-- StudentModule -->
<g id="node5" class="node">
<title>StudentModule</title>
<polygon fill="#8dd3c7" stroke="black" points="1416.33,-198 1413.33,-202 1392.33,-202 1389.33,-198 1313.67,-198 1313.67,-162 1416.33,-162 1416.33,-198"/>
<text text-anchor="middle" x="1365" y="-175.8" font-family="Times,serif" font-size="14.00">StudentModule</text>
</g>
<!-- StudentModule&#45;&gt;AppModule -->
<g id="edge5" class="edge">
<title>StudentModule&#45;&gt;AppModule</title>
<path fill="none" stroke="black" d="M1365,-198.11C1365,-217.34 1365,-245 1365,-245 1365,-245 1237.97,-245 1237.97,-245"/>
<polygon fill="black" stroke="black" points="1237.97,-241.5 1227.97,-245 1237.97,-248.5 1237.97,-241.5"/>
</g>
<!-- StudentService  -->
<g id="node14" class="node">
<title>StudentService </title>
<polygon fill="#fb8072" stroke="black" points="2173.26,-122 2068.74,-122 2068.74,-86 2173.26,-86 2173.26,-122"/>
<text text-anchor="middle" x="2121" y="-99.8" font-family="Times,serif" font-size="14.00">StudentService </text>
</g>
<!-- StudentModule&#45;&gt;StudentService  -->
<g id="edge13" class="edge">
<title>StudentModule&#45;&gt;StudentService </title>
<path fill="none" stroke="black" stroke-dasharray="5,2" d="M1416.37,-189C1586.52,-189 2121,-189 2121,-189 2121,-189 2121,-132.03 2121,-132.03"/>
<polygon fill="black" stroke="black" points="2124.5,-132.03 2121,-122.03 2117.5,-132.03 2124.5,-132.03"/>
</g>
<!-- AppService -->
<g id="node7" class="node">
<title>AppService</title>
<ellipse fill="#fdb462" stroke="black" cx="1123" cy="-180" rx="56.74" ry="18"/>
<text text-anchor="middle" x="1123" y="-175.8" font-family="Times,serif" font-size="14.00">AppService</text>
</g>
<!-- AppService&#45;&gt;AppModule -->
<g id="edge6" class="edge">
<title>AppService&#45;&gt;AppModule</title>
<path fill="none" stroke="black" d="M1161.9,-193.15C1161.9,-193.15 1161.9,-216.69 1161.9,-216.69"/>
<polygon fill="black" stroke="black" points="1158.4,-216.69 1161.9,-226.69 1165.4,-216.69 1158.4,-216.69"/>
</g>
<!-- CreateExamProvider -->
<g id="node9" class="node">
<title>CreateExamProvider</title>
<ellipse fill="#fdb462" stroke="black" cx="1337" cy="-104" rx="92.03" ry="18"/>
<text text-anchor="middle" x="1337" y="-99.8" font-family="Times,serif" font-size="14.00">CreateExamProvider</text>
</g>
<!-- CreateExamProvider&#45;&gt;ExamModule -->
<g id="edge8" class="edge">
<title>CreateExamProvider&#45;&gt;ExamModule</title>
<path fill="none" stroke="black" d="M1262.02,-114.57C1262.02,-114.57 1262.02,-151.93 1262.02,-151.93"/>
<polygon fill="black" stroke="black" points="1258.52,-151.93 1262.02,-161.93 1265.52,-151.93 1258.52,-151.93"/>
</g>
<!-- ExamService -->
<g id="node10" class="node">
<title>ExamService</title>
<ellipse fill="#fdb462" stroke="black" cx="1164" cy="-104" rx="62.54" ry="18"/>
<text text-anchor="middle" x="1164" y="-99.8" font-family="Times,serif" font-size="14.00">ExamService</text>
</g>
<!-- ExamService&#45;&gt;ExamModule -->
<g id="edge9" class="edge">
<title>ExamService&#45;&gt;ExamModule</title>
<path fill="none" stroke="black" d="M1221.99,-110.74C1221.99,-110.74 1221.99,-151.74 1221.99,-151.74"/>
<polygon fill="black" stroke="black" points="1218.49,-151.74 1221.99,-161.74 1225.49,-151.74 1218.49,-151.74"/>
</g>
<!-- FetchExamAssignmentsProvider -->
<g id="node11" class="node">
<title>FetchExamAssignmentsProvider</title>
<ellipse fill="#fdb462" stroke="black" cx="945" cy="-104" rx="138.32" ry="18"/>
<text text-anchor="middle" x="945" y="-99.8" font-family="Times,serif" font-size="14.00">FetchExamAssignmentsProvider</text>
</g>
<!-- FetchExamAssignmentsProvider&#45;&gt;ExamModule -->
<g id="edge10" class="edge">
<title>FetchExamAssignmentsProvider&#45;&gt;ExamModule</title>
<path fill="none" stroke="black" d="M1074.77,-110.29C1074.77,-117.99 1074.77,-130 1074.77,-130 1074.77,-130 1217.47,-130 1217.47,-130 1217.47,-130 1217.47,-151.95 1217.47,-151.95"/>
<polygon fill="black" stroke="black" points="1213.97,-151.95 1217.47,-161.95 1220.97,-151.95 1213.97,-151.95"/>
</g>
<!-- UpdateMcqExamProvider -->
<g id="node12" class="node">
<title>UpdateMcqExamProvider</title>
<ellipse fill="#fdb462" stroke="black" cx="676" cy="-104" rx="112.3" ry="18"/>
<text text-anchor="middle" x="676" y="-99.8" font-family="Times,serif" font-size="14.00">UpdateMcqExamProvider</text>
</g>
<!-- UpdateMcqExamProvider&#45;&gt;ExamModule -->
<g id="edge11" class="edge">
<title>UpdateMcqExamProvider&#45;&gt;ExamModule</title>
<path fill="none" stroke="black" d="M676,-122.19C676,-130.28 676,-138 676,-138 676,-138 1212.95,-138 1212.95,-138 1212.95,-138 1212.95,-151.94 1212.95,-151.94"/>
<polygon fill="black" stroke="black" points="1209.45,-151.94 1212.95,-161.94 1216.45,-151.94 1209.45,-151.94"/>
</g>
<!-- UpdateOeExamProvider -->
<g id="node13" class="node">
<title>UpdateOeExamProvider</title>
<ellipse fill="#fdb462" stroke="black" cx="440" cy="-104" rx="105.92" ry="18"/>
<text text-anchor="middle" x="440" y="-99.8" font-family="Times,serif" font-size="14.00">UpdateOeExamProvider</text>
</g>
<!-- UpdateOeExamProvider&#45;&gt;ExamModule -->
<g id="edge12" class="edge">
<title>UpdateOeExamProvider&#45;&gt;ExamModule</title>
<path fill="none" stroke="black" d="M440,-122.06C440,-133.44 440,-146 440,-146 440,-146 1208.42,-146 1208.42,-146 1208.42,-146 1208.42,-151.81 1208.42,-151.81"/>
<polygon fill="black" stroke="black" points="1204.92,-151.81 1208.42,-161.81 1211.92,-151.81 1204.92,-151.81"/>
</g>
<!-- InsertStudentProvider -->
<g id="node15" class="node">
<title>InsertStudentProvider</title>
<ellipse fill="#fdb462" stroke="black" cx="1949" cy="-104" rx="95.56" ry="18"/>
<text text-anchor="middle" x="1949" y="-99.8" font-family="Times,serif" font-size="14.00">InsertStudentProvider</text>
</g>
<!-- InsertStudentProvider&#45;&gt;StudentModule -->
<g id="edge14" class="edge">
<title>InsertStudentProvider&#45;&gt;StudentModule</title>
<path fill="none" stroke="black" d="M1949,-122.01C1949,-144.49 1949,-180 1949,-180 1949,-180 1426.31,-180 1426.31,-180"/>
<polygon fill="black" stroke="black" points="1426.31,-176.5 1416.31,-180 1426.31,-183.5 1426.31,-176.5"/>
</g>
<!-- StudentService -->
<g id="node16" class="node">
<title>StudentService</title>
<ellipse fill="#fdb462" stroke="black" cx="1766" cy="-104" rx="69.5" ry="18"/>
<text text-anchor="middle" x="1766" y="-99.8" font-family="Times,serif" font-size="14.00">StudentService</text>
</g>
<!-- StudentService&#45;&gt;StudentModule -->
<g id="edge15" class="edge">
<title>StudentService&#45;&gt;StudentModule</title>
<path fill="none" stroke="black" d="M1766,-122.31C1766,-142.15 1766,-171 1766,-171 1766,-171 1426.19,-171 1426.19,-171"/>
<polygon fill="black" stroke="black" points="1426.19,-167.5 1416.19,-171 1426.19,-174.5 1426.19,-167.5"/>
</g>
</g>
</svg>
